<svg width="24" height="25" viewBox="0 0 24 25" fill="none" xmlns="http://www.w3.org/2000/svg">
<path d="M2.49902 12.3223C2.49902 7.84427 2.49902 5.60427 3.89002 4.21327C5.28102 2.82227 7.52002 2.82227 11.999 2.82227C16.477 2.82227 18.717 2.82227 20.108 4.21327C21.499 5.60427 21.499 7.84327 21.499 12.3223C21.499 16.8003 21.499 19.0403 20.108 20.4313C18.717 21.8223 16.478 21.8223 11.999 21.8223C7.52102 21.8223 5.28102 21.8223 3.89002 20.4313C2.49902 19.0403 2.49902 16.8013 2.49902 12.3223Z" stroke="#F9BD00" stroke-width="1.5" stroke-linecap="round" stroke-linejoin="round"/>
<path d="M17.508 6.82227H17.498M16.5 12.3223C16.5 13.5157 16.0259 14.6603 15.182 15.5042C14.3381 16.3482 13.1935 16.8223 12 16.8223C10.8065 16.8223 9.66193 16.3482 8.81802 15.5042C7.97411 14.6603 7.5 13.5157 7.5 12.3223C7.5 11.1288 7.97411 9.9842 8.81802 9.14029C9.66193 8.29637 10.8065 7.82227 12 7.82227C13.1935 7.82227 14.3381 8.29637 15.182 9.14029C16.0259 9.9842 16.5 11.1288 16.5 12.3223Z" stroke="#F9BD00" stroke-width="1.5" stroke-linecap="round" stroke-linejoin="round"/>
</svg>
