<svg width="24" height="25" viewBox="0 0 24 25" fill="none" xmlns="http://www.w3.org/2000/svg">
<path d="M6 9.32422H2V21.3242H6V9.32422Z" stroke="#F9BD00" stroke-width="2" stroke-linecap="round" stroke-linejoin="round"/>
<path d="M16 8.32422C17.5913 8.32422 19.1174 8.95636 20.2426 10.0816C21.3679 11.2068 22 12.7329 22 14.3242V21.3242H18V14.3242C18 13.7938 17.7893 13.2851 17.4142 12.91C17.0391 12.5349 16.5304 12.3242 16 12.3242C15.4696 12.3242 14.9609 12.5349 14.5858 12.91C14.2107 13.2851 14 13.7938 14 14.3242V21.3242H10V14.3242C10 12.7329 10.6321 11.2068 11.7574 10.0816C12.8826 8.95636 14.4087 8.32422 16 8.32422V8.32422Z" stroke="#F9BD00" stroke-width="2" stroke-linecap="round" stroke-linejoin="round"/>
<path d="M4 6.32422C5.10457 6.32422 6 5.42879 6 4.32422C6 3.21965 5.10457 2.32422 4 2.32422C2.89543 2.32422 2 3.21965 2 4.32422C2 5.42879 2.89543 6.32422 4 6.32422Z" stroke="#F9BD00" stroke-width="2" stroke-linecap="round" stroke-linejoin="round"/>
</svg>
