<svg width="24" height="25" viewBox="0 0 24 25" fill="none" xmlns="http://www.w3.org/2000/svg">
<g clip-path="url(#clip0_8506_12050)">
<path d="M15.0504 5.32422C16.0272 5.51478 16.9248 5.99248 17.6285 6.69615C18.3322 7.39983 18.8099 8.29748 19.0004 9.27422M15.0504 1.32422C17.0797 1.54965 18.972 2.45839 20.4167 3.90123C21.8613 5.34406 22.7724 7.23523 23.0004 9.26422M22.0004 17.2442V20.2442C22.0016 20.5227 21.9445 20.7984 21.8329 21.0536C21.7214 21.3087 21.5577 21.5378 21.3525 21.7261C21.1473 21.9144 20.905 22.0577 20.6412 22.1469C20.3773 22.2361 20.0978 22.2693 19.8204 22.2442C16.7433 21.9099 13.7874 20.8584 11.1904 19.1742C8.77425 17.6389 6.72576 15.5904 5.19042 13.1742C3.5004 10.5654 2.44866 7.59521 2.12042 4.50422C2.09543 4.22769 2.1283 3.94898 2.21692 3.68584C2.30555 3.42271 2.44799 3.18091 2.63519 2.97584C2.82238 2.77077 3.05023 2.60693 3.30421 2.49474C3.5582 2.38255 3.83276 2.32448 4.11042 2.32422H7.11042C7.59573 2.31944 8.06621 2.4913 8.43418 2.80775C8.80215 3.12421 9.0425 3.56367 9.11042 4.04422C9.23704 5.00429 9.47187 5.94695 9.81042 6.85422C9.94497 7.21214 9.97408 7.60113 9.89433 7.9751C9.81457 8.34906 9.62928 8.69233 9.36042 8.96422L8.09042 10.2342C9.51398 12.7378 11.5869 14.8107 14.0904 16.2342L15.3604 14.9642C15.6323 14.6954 15.9756 14.5101 16.3495 14.4303C16.7235 14.3506 17.1125 14.3797 17.4704 14.5142C18.3777 14.8528 19.3204 15.0876 20.2804 15.2142C20.7662 15.2827 21.2098 15.5274 21.527 15.9017C21.8441 16.276 22.0126 16.7538 22.0004 17.2442Z" stroke="#F9BD00" stroke-width="2" stroke-linecap="round" stroke-linejoin="round"/>
</g>
<defs>
<clipPath id="clip0_8506_12050">
<rect width="24" height="24" fill="white" transform="translate(0 0.324219)"/>
</clipPath>
</defs>
</svg>
