<svg width="24" height="25" viewBox="0 0 24 25" fill="none" xmlns="http://www.w3.org/2000/svg">
<mask id="mask0_8506_11931" style="mask-type:luminance" maskUnits="userSpaceOnUse" x="0" y="0" width="24" height="25">
<path d="M1 1.32422H23V23.3242H1V1.32422Z" fill="white" stroke="white" stroke-width="2"/>
</mask>
<g mask="url(#mask0_8506_11931)">
<path d="M10.0362 14.9397L3.70084 22.2001H2.6708L9.82385 14.0003L10.3603 13.3853L9.8654 12.7365L2.0204 2.45093H7.09589L12.0347 9.00098L12.7763 9.9846L13.5865 9.05657L19.3545 2.44922H20.3806L13.7871 10.0043L13.2533 10.6159L13.7423 11.2641L21.9929 22.2001H17.0889L11.5845 14.9904L10.8414 14.017L10.0362 14.9397ZM16.8107 21.5986L17.1108 21.9921H17.6057H19.6457H21.6529L20.444 20.3898L7.27827 2.94007L6.97821 2.54236H6.48H4.29257H2.27182L3.49754 4.14893L16.8107 21.5986Z" fill="black" stroke="#F9BD00" stroke-width="2"/>
</g>
</svg>
