<svg width="273" height="69" viewBox="0 0 273 69" fill="none" xmlns="http://www.w3.org/2000/svg">
<g filter="url(#filter0_d_8381_22543)">
<rect x="24.5" y="0.554688" width="248" height="68" rx="32" fill="#1C1D22" shape-rendering="crispEdges"/>
<path d="M86.3803 20.9347C87.1364 20.0632 87.7129 19.051 88.0767 17.9562C88.4405 16.8613 88.5845 15.7053 88.5003 14.5547C86.1791 14.7421 84.0243 15.8338 82.5003 17.5947C81.7705 18.4386 81.2175 19.4204 80.8739 20.482C80.5304 21.5435 80.4033 22.6632 80.5003 23.7747C81.6326 23.7841 82.7519 23.5329 83.7715 23.0404C84.7911 22.5479 85.6838 21.8274 86.3803 20.9347ZM91.4203 35.8147C91.4337 34.2822 91.8374 32.7783 92.5932 31.4451C93.3491 30.1119 94.4322 28.9932 95.7403 28.1947C94.9148 27.0052 93.8234 26.0244 92.5528 25.33C91.2822 24.6357 89.8673 24.247 88.4203 24.1947C85.3003 23.8747 82.4203 26.0147 80.7603 26.0147C79.1003 26.0147 76.7603 24.2347 74.1603 24.2747C72.4606 24.3307 70.8044 24.8262 69.3532 25.7131C67.9021 26.5999 66.7055 27.8476 65.8803 29.3347C62.3603 35.4547 64.9803 44.5547 68.5003 49.4947C70.1003 51.9147 72.1003 54.6547 74.7403 54.5547C77.3803 54.4547 78.2403 52.9147 81.3003 52.9147C84.3603 52.9147 85.3003 54.5547 87.9003 54.4947C90.5003 54.4347 92.3403 52.0147 94.0203 49.5947C95.2104 47.8377 96.14 45.9179 96.7803 43.8947C95.1953 43.2187 93.8429 42.0933 92.8904 40.6573C91.9378 39.2214 91.4268 37.5378 91.4203 35.8147Z" fill="white"/>
<path d="M129.141 26.5547H125.999V16.3729H129.28C130.268 16.3729 131.113 16.5767 131.816 16.9844C132.518 17.3887 133.057 17.9704 133.431 18.7294C133.806 19.4851 133.993 20.3899 133.993 21.4439C133.993 22.5045 133.804 23.4176 133.426 24.1832C133.048 24.9455 132.498 25.5322 131.776 25.9432C131.053 26.3509 130.175 26.5547 129.141 26.5547ZM127.232 25.4609H129.061C129.903 25.4609 130.601 25.2985 131.154 24.9737C131.708 24.6489 132.12 24.1866 132.392 23.5866C132.664 22.9867 132.8 22.2725 132.8 21.4439C132.8 20.6219 132.666 19.9143 132.397 19.321C132.129 18.7244 131.728 18.267 131.194 17.9489C130.66 17.6274 129.996 17.4666 129.2 17.4666H127.232V25.4609ZM139.104 26.7138C138.415 26.7138 137.81 26.5497 137.29 26.2216C136.773 25.8935 136.368 25.4344 136.077 24.8445C135.788 24.2545 135.644 23.5651 135.644 22.7763C135.644 21.9808 135.788 21.2865 136.077 20.6932C136.368 20.0999 136.773 19.6392 137.29 19.3111C137.81 18.983 138.415 18.8189 139.104 18.8189C139.794 18.8189 140.397 18.983 140.914 19.3111C141.434 19.6392 141.839 20.0999 142.127 20.6932C142.419 21.2865 142.565 21.9808 142.565 22.7763C142.565 23.5651 142.419 24.2545 142.127 24.8445C141.839 25.4344 141.434 25.8935 140.914 26.2216C140.397 26.5497 139.794 26.7138 139.104 26.7138ZM139.104 25.6598C139.628 25.6598 140.059 25.5256 140.397 25.2571C140.735 24.9886 140.985 24.6357 141.148 24.1982C141.31 23.7607 141.391 23.2867 141.391 22.7763C141.391 22.2659 141.31 21.7902 141.148 21.3494C140.985 20.9086 140.735 20.5523 140.397 20.2805C140.059 20.0088 139.628 19.8729 139.104 19.8729C138.581 19.8729 138.15 20.0088 137.812 20.2805C137.474 20.5523 137.224 20.9086 137.061 21.3494C136.899 21.7902 136.818 22.2659 136.818 22.7763C136.818 23.2867 136.899 23.7607 137.061 24.1982C137.224 24.6357 137.474 24.9886 137.812 25.2571C138.15 25.5256 138.581 25.6598 139.104 25.6598ZM145.926 26.5547L143.599 18.9183H144.832L146.483 24.7649H146.562L148.193 18.9183H149.446L151.057 24.745H151.136L152.787 18.9183H154.02L151.693 26.5547H150.54L148.869 20.6882H148.75L147.079 26.5547H145.926ZM156.844 21.9609V26.5547H155.671V18.9183H156.804V20.1115H156.904C157.083 19.7237 157.355 19.4122 157.719 19.1768C158.084 18.9382 158.554 18.8189 159.131 18.8189C159.648 18.8189 160.101 18.925 160.488 19.1371C160.876 19.3459 161.178 19.6641 161.393 20.0916C161.609 20.5159 161.716 21.0528 161.716 21.7024V26.5547H160.543V21.782C160.543 21.1821 160.387 20.7147 160.076 20.38C159.764 20.0419 159.337 19.8729 158.793 19.8729C158.419 19.8729 158.084 19.9541 157.789 20.1165C157.497 20.2789 157.267 20.5159 157.098 20.8274C156.929 21.139 156.844 21.5168 156.844 21.9609ZM165.134 16.3729V26.5547H163.96V16.3729H165.134ZM170.485 26.7138C169.796 26.7138 169.191 26.5497 168.67 26.2216C168.153 25.8935 167.749 25.4344 167.457 24.8445C167.169 24.2545 167.025 23.5651 167.025 22.7763C167.025 21.9808 167.169 21.2865 167.457 20.6932C167.749 20.0999 168.153 19.6392 168.67 19.3111C169.191 18.983 169.796 18.8189 170.485 18.8189C171.174 18.8189 171.778 18.983 172.295 19.3111C172.815 19.6392 173.219 20.0999 173.508 20.6932C173.799 21.2865 173.945 21.9808 173.945 22.7763C173.945 23.5651 173.799 24.2545 173.508 24.8445C173.219 25.4344 172.815 25.8935 172.295 26.2216C171.778 26.5497 171.174 26.7138 170.485 26.7138ZM170.485 25.6598C171.009 25.6598 171.439 25.5256 171.778 25.2571C172.116 24.9886 172.366 24.6357 172.528 24.1982C172.691 23.7607 172.772 23.2867 172.772 22.7763C172.772 22.2659 172.691 21.7902 172.528 21.3494C172.366 20.9086 172.116 20.5523 171.778 20.2805C171.439 20.0088 171.009 19.8729 170.485 19.8729C169.961 19.8729 169.53 20.0088 169.192 20.2805C168.854 20.5523 168.604 20.9086 168.442 21.3494C168.279 21.7902 168.198 22.2659 168.198 22.7763C168.198 23.2867 168.279 23.7607 168.442 24.1982C168.604 24.6357 168.854 24.9886 169.192 25.2571C169.53 25.5256 169.961 25.6598 170.485 25.6598ZM178.083 26.7337C177.599 26.7337 177.16 26.6425 176.766 26.4602C176.371 26.2746 176.058 26.0078 175.826 25.6598C175.594 25.3085 175.478 24.8842 175.478 24.3871C175.478 23.9496 175.564 23.5949 175.737 23.3232C175.909 23.0481 176.139 22.8326 176.428 22.6768C176.716 22.5211 177.034 22.4051 177.382 22.3288C177.734 22.2493 178.087 22.1863 178.441 22.1399C178.905 22.0803 179.281 22.0355 179.57 22.0057C179.861 21.9725 180.074 21.9179 180.206 21.8416C180.342 21.7654 180.41 21.6328 180.41 21.4439V21.4041C180.41 20.9136 180.276 20.5324 180.007 20.2607C179.742 19.9889 179.339 19.853 178.799 19.853C178.239 19.853 177.8 19.9756 177.482 20.2209C177.164 20.4661 176.94 20.728 176.811 21.0064L175.697 20.6087C175.896 20.1446 176.161 19.7834 176.492 19.5249C176.827 19.263 177.192 19.0807 177.586 18.978C177.984 18.8719 178.375 18.8189 178.759 18.8189C179.005 18.8189 179.286 18.8487 179.605 18.9084C179.926 18.9647 180.236 19.0824 180.534 19.2614C180.836 19.4403 181.086 19.7105 181.285 20.0717C181.484 20.433 181.583 20.9169 181.583 21.5234V26.5547H180.41V25.5206H180.35C180.271 25.6863 180.138 25.8636 179.953 26.0526C179.767 26.2415 179.52 26.4022 179.212 26.5348C178.904 26.6674 178.527 26.7337 178.083 26.7337ZM178.262 25.6797C178.726 25.6797 179.117 25.5885 179.436 25.4062C179.757 25.224 179.999 24.9886 180.161 24.7003C180.327 24.4119 180.41 24.1087 180.41 23.7905V22.7166C180.36 22.7763 180.251 22.831 180.082 22.8807C179.916 22.9271 179.724 22.9685 179.505 23.005C179.29 23.0381 179.079 23.0679 178.874 23.0945C178.672 23.1177 178.508 23.1375 178.382 23.1541C178.077 23.1939 177.792 23.2585 177.527 23.348C177.265 23.4342 177.053 23.5651 176.89 23.7408C176.731 23.9131 176.652 24.1484 176.652 24.4467C176.652 24.8544 176.802 25.1626 177.104 25.3714C177.409 25.5769 177.795 25.6797 178.262 25.6797ZM186.708 26.7138C186.072 26.7138 185.51 26.553 185.023 26.2315C184.536 25.9067 184.155 25.4493 183.88 24.8594C183.604 24.2661 183.467 23.5651 183.467 22.7564C183.467 21.9543 183.604 21.2583 183.88 20.6683C184.155 20.0784 184.537 19.6226 185.028 19.3011C185.518 18.9796 186.085 18.8189 186.728 18.8189C187.225 18.8189 187.618 18.9018 187.907 19.0675C188.198 19.2299 188.42 19.4155 188.573 19.6243C188.728 19.8298 188.849 19.9988 188.936 20.1314H189.035V16.3729H190.208V26.5547H189.075V25.3814H188.936C188.849 25.5206 188.727 25.6963 188.568 25.9084C188.409 26.1172 188.182 26.3045 187.887 26.4702C187.592 26.6326 187.199 26.7138 186.708 26.7138ZM186.867 25.6598C187.338 25.6598 187.736 25.5372 188.061 25.2919C188.385 25.0433 188.632 24.7003 188.801 24.2628C188.97 23.822 189.055 23.3132 189.055 22.7365C189.055 22.1664 188.972 21.6676 188.806 21.2401C188.641 20.8092 188.395 20.4744 188.071 20.2358C187.746 19.9938 187.345 19.8729 186.867 19.8729C186.37 19.8729 185.956 20.0005 185.625 20.2557C185.296 20.5076 185.05 20.8506 184.884 21.2848C184.721 21.7157 184.64 22.1996 184.64 22.7365C184.64 23.2801 184.723 23.7739 184.889 24.218C185.058 24.6589 185.306 25.0102 185.634 25.272C185.966 25.5305 186.377 25.6598 186.867 25.6598ZM199.76 26.7138C199.071 26.7138 198.466 26.5497 197.945 26.2216C197.428 25.8935 197.024 25.4344 196.732 24.8445C196.444 24.2545 196.3 23.5651 196.3 22.7763C196.3 21.9808 196.444 21.2865 196.732 20.6932C197.024 20.0999 197.428 19.6392 197.945 19.3111C198.466 18.983 199.071 18.8189 199.76 18.8189C200.449 18.8189 201.053 18.983 201.57 19.3111C202.09 19.6392 202.494 20.0999 202.783 20.6932C203.074 21.2865 203.22 21.9808 203.22 22.7763C203.22 23.5651 203.074 24.2545 202.783 24.8445C202.494 25.4344 202.09 25.8935 201.57 26.2216C201.053 26.5497 200.449 26.7138 199.76 26.7138ZM199.76 25.6598C200.284 25.6598 200.714 25.5256 201.053 25.2571C201.391 24.9886 201.641 24.6357 201.803 24.1982C201.966 23.7607 202.047 23.2867 202.047 22.7763C202.047 22.2659 201.966 21.7902 201.803 21.3494C201.641 20.9086 201.391 20.5523 201.053 20.2805C200.714 20.0088 200.284 19.8729 199.76 19.8729C199.236 19.8729 198.805 20.0088 198.467 20.2805C198.129 20.5523 197.879 20.9086 197.717 21.3494C197.554 21.7902 197.473 22.2659 197.473 22.7763C197.473 23.2867 197.554 23.7607 197.717 24.1982C197.879 24.6357 198.129 24.9886 198.467 25.2571C198.805 25.5256 199.236 25.6598 199.76 25.6598ZM206.284 21.9609V26.5547H205.111V18.9183H206.245V20.1115H206.344C206.523 19.7237 206.795 19.4122 207.159 19.1768C207.524 18.9382 207.995 18.8189 208.571 18.8189C209.088 18.8189 209.541 18.925 209.929 19.1371C210.316 19.3459 210.618 19.6641 210.833 20.0916C211.049 20.5159 211.157 21.0528 211.157 21.7024V26.5547H209.983V21.782C209.983 21.1821 209.828 20.7147 209.516 20.38C209.204 20.0419 208.777 19.8729 208.233 19.8729C207.859 19.8729 207.524 19.9541 207.229 20.1165C206.937 20.2789 206.707 20.5159 206.538 20.8274C206.369 21.139 206.284 21.5168 206.284 21.9609ZM220.759 18.9183V19.9126H216.802V18.9183H220.759ZM217.955 17.0888H219.128V24.3672C219.128 24.6986 219.177 24.9472 219.273 25.1129C219.372 25.2753 219.498 25.3847 219.65 25.4411C219.806 25.4941 219.97 25.5206 220.143 25.5206C220.272 25.5206 220.378 25.514 220.461 25.5007C220.544 25.4841 220.61 25.4709 220.66 25.4609L220.898 26.5149C220.819 26.5447 220.708 26.5746 220.565 26.6044C220.423 26.6375 220.242 26.6541 220.023 26.6541C219.692 26.6541 219.367 26.5829 219.049 26.4403C218.734 26.2978 218.472 26.0807 218.263 25.7891C218.058 25.4974 217.955 25.1295 217.955 24.6854V17.0888ZM223.961 21.9609V26.5547H222.788V16.3729H223.961V20.1115H224.061C224.24 19.7171 224.508 19.4039 224.866 19.1719C225.228 18.9366 225.708 18.8189 226.308 18.8189C226.828 18.8189 227.284 18.9233 227.675 19.1321C228.066 19.3376 228.37 19.6541 228.585 20.0817C228.804 20.5059 228.913 21.0462 228.913 21.7024V26.5547H227.74V21.782C227.74 21.1754 227.582 20.7064 227.268 20.375C226.956 20.0402 226.523 19.8729 225.97 19.8729C225.585 19.8729 225.241 19.9541 224.936 20.1165C224.634 20.2789 224.396 20.5159 224.22 20.8274C224.048 21.139 223.961 21.5168 223.961 21.9609ZM234.361 26.7138C233.626 26.7138 232.991 26.5514 232.457 26.2266C231.927 25.8984 231.518 25.4411 231.229 24.8544C230.944 24.2644 230.802 23.5784 230.802 22.7962C230.802 22.014 230.944 21.3246 231.229 20.728C231.518 20.1281 231.919 19.6607 232.432 19.326C232.949 18.9879 233.553 18.8189 234.242 18.8189C234.64 18.8189 235.032 18.8852 235.42 19.0178C235.808 19.1503 236.161 19.3658 236.479 19.6641C236.797 19.959 237.051 20.3501 237.24 20.8374C237.429 21.3246 237.523 21.9245 237.523 22.6371V23.1342H231.637V22.12H236.33C236.33 21.6892 236.244 21.3047 236.072 20.9666C235.903 20.6286 235.661 20.3617 235.346 20.1662C235.034 19.9706 234.666 19.8729 234.242 19.8729C233.775 19.8729 233.37 19.9889 233.029 20.2209C232.691 20.4496 232.431 20.7479 232.248 21.1158C232.066 21.4837 231.975 21.8781 231.975 22.299V22.9751C231.975 23.5518 232.074 24.0407 232.273 24.4418C232.475 24.8395 232.755 25.1428 233.113 25.3516C233.471 25.5571 233.887 25.6598 234.361 25.6598C234.67 25.6598 234.948 25.6167 235.197 25.5305C235.448 25.4411 235.666 25.3085 235.848 25.1328C236.03 24.9538 236.171 24.7318 236.27 24.4666L237.404 24.7848C237.285 25.1693 237.084 25.5073 236.802 25.799C236.521 26.0874 236.173 26.3127 235.758 26.4751C235.344 26.6342 234.878 26.7138 234.361 26.7138Z" fill="#E1E2E9"/>
<path d="M128.34 50.5547H125.544L131.825 33.1001H134.868L141.149 50.5547H138.354L133.419 36.2706H133.283L128.34 50.5547ZM128.808 43.7195H137.877V45.9354H128.808V43.7195ZM143.565 55.4638V37.4638H146.054V39.5859H146.267C146.415 39.3132 146.628 38.9979 146.906 38.6399C147.185 38.282 147.571 37.9695 148.065 37.7024C148.56 37.4297 149.213 37.2933 150.026 37.2933C151.082 37.2933 152.026 37.5604 152.855 38.0945C153.685 38.6286 154.335 39.3984 154.807 40.4041C155.284 41.4098 155.523 42.62 155.523 44.0348C155.523 45.4496 155.287 46.6626 154.815 47.674C154.344 48.6797 153.696 49.4553 152.872 50.0007C152.048 50.5405 151.108 50.8104 150.051 50.8104C149.256 50.8104 148.605 50.6768 148.1 50.4098C147.6 50.1428 147.207 49.8303 146.923 49.4723C146.639 49.1143 146.421 48.7962 146.267 48.5178H146.114V55.4638H143.565ZM146.063 44.0092C146.063 44.9297 146.196 45.7365 146.463 46.4297C146.73 47.1229 147.117 47.6655 147.622 48.0575C148.128 48.4439 148.747 48.6371 149.48 48.6371C150.242 48.6371 150.878 48.4354 151.389 48.032C151.901 47.6229 152.287 47.0689 152.548 46.37C152.815 45.6712 152.949 44.8842 152.949 44.0092C152.949 43.1456 152.818 42.37 152.557 41.6825C152.301 40.995 151.915 40.4524 151.398 40.0547C150.886 39.657 150.247 39.4581 149.48 39.4581C148.742 39.4581 148.117 39.6484 147.605 40.0291C147.1 40.4098 146.716 40.9411 146.455 41.6229C146.193 42.3047 146.063 43.1001 146.063 44.0092ZM158.478 55.4638V37.4638H160.967V39.5859H161.18C161.327 39.3132 161.54 38.9979 161.819 38.6399C162.097 38.282 162.484 37.9695 162.978 37.7024C163.472 37.4297 164.126 37.2933 164.938 37.2933C165.995 37.2933 166.938 37.5604 167.768 38.0945C168.597 38.6286 169.248 39.3984 169.719 40.4041C170.197 41.4098 170.435 42.62 170.435 44.0348C170.435 45.4496 170.2 46.6626 169.728 47.674C169.256 48.6797 168.609 49.4553 167.785 50.0007C166.961 50.5405 166.021 50.8104 164.964 50.8104C164.168 50.8104 163.518 50.6768 163.012 50.4098C162.512 50.1428 162.12 49.8303 161.836 49.4723C161.552 49.1143 161.333 48.7962 161.18 48.5178H161.026V55.4638H158.478ZM160.975 44.0092C160.975 44.9297 161.109 45.7365 161.376 46.4297C161.643 47.1229 162.029 47.6655 162.535 48.0575C163.04 48.4439 163.66 48.6371 164.393 48.6371C165.154 48.6371 165.79 48.4354 166.302 48.032C166.813 47.6229 167.2 47.0689 167.461 46.37C167.728 45.6712 167.861 44.8842 167.861 44.0092C167.861 43.1456 167.731 42.37 167.469 41.6825C167.214 40.995 166.827 40.4524 166.31 40.0547C165.799 39.657 165.16 39.4581 164.393 39.4581C163.654 39.4581 163.029 39.6484 162.518 40.0291C162.012 40.4098 161.628 40.9411 161.367 41.6229C161.106 42.3047 160.975 43.1001 160.975 44.0092ZM189.566 37.6854C189.475 36.8786 189.1 36.2536 188.441 35.8104C187.782 35.3615 186.953 35.1371 185.953 35.1371C185.237 35.1371 184.618 35.2507 184.095 35.478C183.572 35.6996 183.166 36.0064 182.876 36.3984C182.592 36.7848 182.45 37.2251 182.45 37.7195C182.45 38.1342 182.547 38.4922 182.74 38.7933C182.939 39.0945 183.197 39.3473 183.515 39.5518C183.839 39.7507 184.186 39.9183 184.555 40.0547C184.924 40.1854 185.279 40.2933 185.62 40.3786L187.325 40.8217C187.882 40.9581 188.453 41.1428 189.038 41.3757C189.623 41.6087 190.166 41.9155 190.666 42.2962C191.166 42.6768 191.569 43.1484 191.876 43.7109C192.189 44.2734 192.345 44.9467 192.345 45.7308C192.345 46.7195 192.089 47.5973 191.578 48.3643C191.072 49.1314 190.336 49.7365 189.37 50.1797C188.41 50.6229 187.248 50.8445 185.885 50.8445C184.578 50.8445 183.447 50.6371 182.493 50.2223C181.538 49.8075 180.791 49.2195 180.251 48.4581C179.711 47.6911 179.413 46.782 179.356 45.7308H181.998C182.049 46.3615 182.254 46.8871 182.612 47.3075C182.975 47.7223 183.439 48.032 184.001 48.2365C184.569 48.4354 185.191 48.5348 185.868 48.5348C186.612 48.5348 187.274 48.4183 187.853 48.1854C188.439 47.9467 188.899 47.6172 189.234 47.1967C189.569 46.7706 189.737 46.2734 189.737 45.7053C189.737 45.1882 189.589 44.7649 189.294 44.4354C189.004 44.1058 188.609 43.8331 188.109 43.6172C187.615 43.4013 187.055 43.2109 186.43 43.0462L184.368 42.4837C182.97 42.103 181.862 41.5433 181.044 40.8047C180.231 40.0661 179.825 39.0888 179.825 37.8729C179.825 36.8672 180.098 35.9893 180.643 35.2393C181.189 34.4893 181.927 33.907 182.859 33.4922C183.791 33.0717 184.842 32.8615 186.012 32.8615C187.194 32.8615 188.237 33.0689 189.14 33.4837C190.049 33.8984 190.765 34.4695 191.288 35.1967C191.811 35.9183 192.083 36.7479 192.106 37.6854H189.566ZM201.498 37.4638V39.5092H194.348V37.4638H201.498ZM196.265 34.3274H198.813V46.7109C198.813 47.2053 198.887 47.5774 199.035 47.8274C199.183 48.0717 199.373 48.2393 199.606 48.3303C199.845 48.4155 200.103 48.4581 200.382 48.4581C200.586 48.4581 200.765 48.4439 200.919 48.4155C201.072 48.3871 201.191 48.3643 201.276 48.3473L201.737 50.4524C201.589 50.5092 201.379 50.5661 201.106 50.6229C200.833 50.6854 200.492 50.7195 200.083 50.7251C199.413 50.7365 198.788 50.6172 198.208 50.3672C197.629 50.1172 197.16 49.7308 196.802 49.2081C196.444 48.6854 196.265 48.0291 196.265 47.2393V34.3274ZM209.791 50.8189C208.563 50.8189 207.492 50.5376 206.577 49.9751C205.663 49.4126 204.952 48.6257 204.447 47.6143C203.941 46.603 203.688 45.4212 203.688 44.0689C203.688 42.7109 203.941 41.5234 204.447 40.5064C204.952 39.4893 205.663 38.6996 206.577 38.1371C207.492 37.5746 208.563 37.2933 209.791 37.2933C211.018 37.2933 212.089 37.5746 213.004 38.1371C213.918 38.6996 214.629 39.4893 215.134 40.5064C215.64 41.5234 215.893 42.7109 215.893 44.0689C215.893 45.4212 215.64 46.603 215.134 47.6143C214.629 48.6257 213.918 49.4126 213.004 49.9751C212.089 50.5376 211.018 50.8189 209.791 50.8189ZM209.799 48.6797C210.595 48.6797 211.254 48.4695 211.776 48.049C212.299 47.6286 212.685 47.0689 212.935 46.37C213.191 45.6712 213.319 44.9013 213.319 44.0604C213.319 43.2251 213.191 42.4581 212.935 41.7592C212.685 41.0547 212.299 40.4893 211.776 40.0632C211.254 39.6371 210.595 39.424 209.799 39.424C208.998 39.424 208.333 39.6371 207.805 40.0632C207.282 40.4893 206.893 41.0547 206.637 41.7592C206.387 42.4581 206.262 43.2251 206.262 44.0604C206.262 44.9013 206.387 45.6712 206.637 46.37C206.893 47.0689 207.282 47.6286 207.805 48.049C208.333 48.4695 208.998 48.6797 209.799 48.6797ZM218.837 50.5547V37.4638H221.3V39.5433H221.437C221.675 38.8388 222.096 38.2848 222.698 37.8814C223.306 37.4723 223.994 37.2678 224.761 37.2678C224.92 37.2678 225.107 37.2734 225.323 37.2848C225.545 37.2962 225.718 37.3104 225.843 37.3274V39.7649C225.741 39.7365 225.559 39.7053 225.298 39.6712C225.036 39.6314 224.775 39.6115 224.513 39.6115C223.911 39.6115 223.374 39.7393 222.903 39.995C222.437 40.245 222.067 40.5945 221.795 41.0433C221.522 41.4865 221.386 41.9922 221.386 42.5604V50.5547H218.837ZM233.322 50.8189C232.032 50.8189 230.921 50.5433 229.989 49.9922C229.063 49.4354 228.347 48.6541 227.841 47.6484C227.341 46.6371 227.091 45.4524 227.091 44.0945C227.091 42.7536 227.341 41.5717 227.841 40.549C228.347 39.5263 229.052 38.728 229.955 38.1541C230.864 37.5803 231.927 37.2933 233.143 37.2933C233.881 37.2933 234.597 37.4155 235.29 37.6598C235.983 37.9041 236.606 38.2876 237.157 38.8104C237.708 39.3331 238.143 40.0121 238.461 40.8473C238.779 41.6768 238.938 42.6854 238.938 43.8729V44.7763H228.532V42.8672H236.441C236.441 42.1967 236.304 41.603 236.032 41.0859C235.759 40.5632 235.375 40.1513 234.881 39.8501C234.393 39.549 233.819 39.3984 233.16 39.3984C232.444 39.3984 231.819 39.5746 231.285 39.9268C230.756 40.2734 230.347 40.728 230.057 41.2905C229.773 41.8473 229.631 42.4524 229.631 43.1058V44.5973C229.631 45.4723 229.785 46.2166 230.091 46.8303C230.404 47.4439 230.839 47.9126 231.395 48.2365C231.952 48.5547 232.603 48.7138 233.347 48.7138C233.83 48.7138 234.27 48.6456 234.668 48.5092C235.066 48.3672 235.41 48.157 235.699 47.8786C235.989 47.6001 236.211 47.2564 236.364 46.8473L238.776 47.282C238.583 47.9922 238.236 48.6143 237.736 49.1484C237.242 49.6768 236.62 50.0888 235.87 50.3842C235.125 50.674 234.276 50.8189 233.322 50.8189Z" fill="white"/>
</g>
<defs>
<filter id="filter0_d_8381_22543" x="0.5" y="-22.4453" width="296" height="116" filterUnits="userSpaceOnUse" color-interpolation-filters="sRGB">
<feFlood flood-opacity="0" result="BackgroundImageFix"/>
<feColorMatrix in="SourceAlpha" type="matrix" values="0 0 0 0 0 0 0 0 0 0 0 0 0 0 0 0 0 0 127 0" result="hardAlpha"/>
<feOffset dy="1"/>
<feGaussianBlur stdDeviation="12"/>
<feComposite in2="hardAlpha" operator="out"/>
<feColorMatrix type="matrix" values="0 0 0 0 0 0 0 0 0 0 0 0 0 0 0 0 0 0 0.08 0"/>
<feBlend mode="normal" in2="BackgroundImageFix" result="effect1_dropShadow_8381_22543"/>
<feBlend mode="normal" in="SourceGraphic" in2="effect1_dropShadow_8381_22543" result="shape"/>
</filter>
</defs>
</svg>
