<svg width="155" height="40" viewBox="0 0 155 40" fill="none" xmlns="http://www.w3.org/2000/svg">
<path d="M32.0038 28.9433C29.6243 29.1677 27.3941 28.8938 25.3668 28.1253C22.4981 27.0387 20.0934 24.9981 18.2186 22.0582C16.1741 18.8533 13.3069 17.5247 9.44896 18C6.82718 18.3233 4.58128 19.4169 3.83737 19.8127C3.68953 19.8922 3.51181 19.8268 3.43474 19.6642L0.877444 14.3268C0.795661 14.1537 0.855426 13.9399 1.01113 13.8533C1.9249 13.3463 4.91785 11.8145 8.5808 11.3216C11.2372 10.9629 13.7174 11.2103 15.9523 12.0583C18.821 13.1466 21.2257 15.1873 23.1005 18.1272C25.1435 21.3321 28.0106 22.6572 31.8686 22.1801C34.4888 21.8568 36.7347 20.7614 37.4786 20.3639C37.6264 20.2861 37.8042 20.3498 37.8812 20.5123L40.4417 25.8497C40.5234 26.0211 40.4637 26.2349 40.308 26.3214C39.3942 26.8303 36.4013 28.3638 32.7399 28.8603C32.493 28.8921 32.2476 28.9203 32.0038 28.9433ZM32.9302 10.2244C32.8767 10.1131 32.7698 10.0477 32.6581 10.0548C30.7189 10.1661 27.7369 9.68377 25.4565 6.37815C22.8142 2.54603 18.8509 0.531914 13.9974 0.554882C11.3064 0.567249 9.09037 1.20329 8.15615 1.51777C7.98001 1.57784 7.89822 1.80222 7.98472 1.9842L10.6521 7.51418C10.7135 7.64139 10.8408 7.70676 10.9651 7.67849C11.7829 7.48415 12.9232 7.29157 14.1735 7.30217C17.0579 7.32514 19.2567 8.40463 20.7099 10.5106C23.2955 14.2597 26.8483 16.4222 30.9847 16.765C31.8922 16.8392 32.732 16.818 33.4696 16.7473C34.2843 16.6713 34.9732 16.5371 35.4922 16.4099C35.6809 16.3639 35.7753 16.1272 35.6841 15.9364L32.9302 10.2244Z" fill="#F9BD00"/>
<path d="M14.5266 24.6323C14.8222 26.8248 13.4807 28.8708 11.5305 29.2029C9.58024 29.5351 7.75742 28.028 7.46174 25.8372C7.16606 23.6464 8.50762 21.5987 10.4578 21.2666C12.4096 20.9344 14.2309 22.4415 14.5266 24.6323ZM32.8161 35.1339C33.1118 37.3247 31.7702 39.3707 29.8184 39.7028C27.8682 40.0367 26.047 38.5297 25.7497 36.3371C25.4541 34.1463 26.7956 32.0986 28.7474 31.7665C30.6976 31.4343 32.5204 32.9414 32.8161 35.1339Z" fill="#F9BD00"/>
<path d="M99.5173 25.7647C99.467 25.6216 99.3616 25.5156 99.231 25.4749C99.0989 25.4361 98.9605 25.4679 98.852 25.5615C98.44 25.9254 97.9084 26.111 97.273 26.111C96.7775 26.111 96.4111 25.9572 96.15 25.6428C95.8842 25.3212 95.7505 24.8442 95.7505 24.224V17.2276C95.7505 17.2029 95.7678 17.1835 95.7914 17.1835H99.0911C99.3286 17.1835 99.5204 16.9662 99.5204 16.7011V13.74C99.5204 13.475 99.3286 13.2577 99.0911 13.2577H95.7914C95.7678 13.2577 95.7505 13.2383 95.7505 13.2135V10.127C95.7505 9.86199 95.5587 9.64468 95.3212 9.64468H92.0263C91.7903 9.64468 91.5969 9.86199 91.5969 10.127V13.2135C91.5969 13.2383 91.5796 13.2577 91.5576 13.2577H89.7064C89.4705 13.2577 89.2771 13.475 89.2771 13.74V16.7011C89.2771 16.9662 89.4705 17.1835 89.7064 17.1835H91.5576C91.5796 17.1835 91.5969 17.2029 91.5969 17.2276V24.3124C91.5969 26.1993 92.0687 27.6569 92.9966 28.6445C93.9183 29.6268 95.2237 30.1251 96.8766 30.1251C97.5105 30.1251 98.1348 30.0279 98.7325 29.8406C99.3521 29.6445 99.7563 29.3865 100.179 29.0544L100.299 28.9537C100.45 28.8229 100.507 28.5933 100.437 28.3936L99.5173 25.7647ZM61.6862 23.1463C61.6013 23.0562 61.4912 23.0103 61.3748 23.0138C61.2585 23.0191 61.1499 23.0756 61.0713 23.1728L61.0619 23.1852C60.3982 24.0103 59.648 24.6304 58.8333 25.0279C58.017 25.429 57.1158 25.6322 56.1549 25.6322C55.1892 25.6322 54.2974 25.4537 53.5048 25.1004C52.7152 24.7488 52.0201 24.247 51.4413 23.6039C50.861 22.9626 50.4049 22.194 50.084 21.3177C49.7616 20.4379 49.5996 19.4555 49.5996 18.3919C49.5996 17.3301 49.7632 16.346 50.084 15.4679C50.4049 14.5916 50.861 13.8213 51.4413 13.18C52.0201 12.5386 52.7152 12.0351 53.5048 11.6835C54.2974 11.3319 55.1892 11.1535 56.1549 11.1535C57.1158 11.1535 58.017 11.3567 58.8333 11.756C59.6511 12.157 60.4013 12.7683 61.076 13.5846C61.1547 13.68 61.26 13.7347 61.3748 13.7383C61.4896 13.7436 61.5997 13.6976 61.6847 13.6075L64.0564 11.1023C64.2231 10.9256 64.2373 10.6358 64.0815 10.4291C63.1253 9.15705 61.9379 8.18356 60.5539 7.53692C59.1793 6.89558 57.6427 6.57227 55.9882 6.57227C54.428 6.57227 52.97 6.86378 51.6552 7.43975C50.3388 8.01572 49.1687 8.84433 48.1778 9.90086C47.1854 10.9609 46.4069 12.2295 45.8643 13.6694C45.3202 15.1075 45.0449 16.6976 45.0449 18.3919C45.0449 20.088 45.3202 21.6764 45.8643 23.1163C46.4069 24.5562 47.1807 25.823 48.1621 26.883C49.1435 27.9396 50.3137 28.7699 51.6411 29.3459C52.9669 29.9219 54.4185 30.2134 55.9598 30.2134C57.6348 30.2134 59.1808 29.883 60.5554 29.2311C61.9379 28.5738 63.1237 27.6074 64.0878 26.3477C64.2373 26.1534 64.2247 25.8618 64.0595 25.6852L61.6862 23.1463ZM74.2541 23.1817L74.251 24.406C74.0025 25.0703 73.6203 25.5615 73.0856 25.9078C72.5115 26.2788 71.8525 26.4661 71.1243 26.4661C70.3773 26.4661 69.7985 26.2982 69.4022 25.9678C69.0342 25.6622 68.8643 25.277 68.8643 24.7558C68.8643 24.2929 69.0043 23.929 69.3078 23.6127C69.5154 23.3954 70.0266 23.1357 71.2816 23.1357H74.2132C74.2353 23.1357 74.2541 23.1552 74.2541 23.1817ZM76.5865 14.7241C75.3944 13.5545 73.7084 12.9627 71.5726 12.9627C70.4135 12.9627 69.2795 13.1323 68.2022 13.468C67.1075 13.8089 66.4077 14.1075 65.615 14.7913L65.3586 15.0121C65.1872 15.1588 65.1384 15.4202 65.2391 15.6323L66.5288 18.3213C66.5901 18.4502 66.697 18.5386 66.8244 18.5669C66.9518 18.5934 67.0808 18.5563 67.1799 18.4626C67.6627 18.0121 68.2666 17.6534 68.9744 17.3973C69.6947 17.1375 70.4355 17.005 71.1762 17.005C72.2379 17.005 73.0258 17.2665 73.5212 17.7806C73.9632 18.24 74.2007 18.8548 74.2463 19.6623C74.2478 19.6817 74.2384 19.6941 74.2337 19.6994C74.229 19.7064 74.2195 19.7135 74.2054 19.7135H71.0441C69.5689 19.7135 68.3594 19.9361 67.4488 20.3743C66.5067 20.8283 65.8147 21.4626 65.3917 22.2594C64.9749 23.0403 64.7641 23.9308 64.7641 24.9043C64.7641 25.906 65.0048 26.8177 65.4813 27.6162C65.9547 28.4095 66.6326 29.0332 67.4929 29.4749C68.3358 29.906 69.3267 30.1251 70.4386 30.1251C71.755 30.1251 72.867 29.8441 73.7446 29.2929C73.9695 29.1516 74.1818 28.9926 74.3737 28.8212C74.3878 28.8088 74.402 28.807 74.4161 28.8159C74.4318 28.8229 74.4381 28.8371 74.4381 28.8547V29.436C74.4381 29.701 74.6316 29.9166 74.8675 29.9166H77.9784C78.2143 29.9166 78.4078 29.701 78.4078 29.436V20.1658C78.4078 17.7418 77.7944 15.9114 76.5865 14.7241ZM87.8805 12.9627C86.4618 12.9627 85.2524 13.2613 84.2883 13.8496C83.9533 14.0545 83.6419 14.2966 83.3651 14.5704C83.3604 14.574 83.3478 14.5881 83.3242 14.5775C83.3085 14.5687 83.3006 14.5563 83.3006 14.5369V13.6217C83.3006 13.3549 83.1087 13.1393 82.8728 13.1393H79.7352C79.4993 13.1393 79.3058 13.3549 79.3058 13.6217V29.436C79.3058 29.701 79.4993 29.9166 79.7352 29.9166H83.0301C83.266 29.9166 83.4595 29.701 83.4595 29.436V21.7647C83.4595 20.2877 83.7882 19.1729 84.4393 18.4502C85.0904 17.7276 85.9916 17.3602 87.1161 17.3602C87.2262 17.3602 87.341 17.3655 87.4543 17.3743C87.5518 17.3831 87.6603 17.4026 87.7782 17.4344C87.9072 17.4715 88.0409 17.4397 88.1447 17.3478C88.2501 17.2559 88.3098 17.1181 88.3098 16.9679V13.4432C88.3098 13.1782 88.118 12.9627 87.8805 12.9627ZM125.182 13.3461C125.101 13.2171 124.971 13.1393 124.831 13.1393H121.904C121.725 13.1393 121.563 13.2666 121.501 13.4556L118.112 23.8195C118.11 23.8265 118.103 23.8495 118.074 23.8495C118.046 23.8495 118.04 23.8265 118.036 23.8195L114.688 13.4574C114.627 13.2666 114.465 13.1393 114.285 13.1393H111.517C111.34 13.1393 111.178 13.2648 111.115 13.4521L107.68 23.7788C107.678 23.7859 107.67 23.8071 107.644 23.8071H107.642C107.614 23.8071 107.608 23.7859 107.604 23.7788L104.328 13.4591C104.269 13.2683 104.105 13.1393 103.924 13.1393H100.813C100.673 13.1393 100.543 13.2171 100.463 13.3461C100.382 13.475 100.363 13.6393 100.411 13.7877L105.579 29.6021C105.64 29.7911 105.802 29.9166 105.981 29.9166H109.144C109.322 29.9166 109.482 29.7929 109.545 29.6074L112.802 20.0121C112.804 20.005 112.812 19.982 112.84 19.982C112.867 19.982 112.875 20.005 112.878 20.0121L116.072 29.6039C116.133 29.7911 116.295 29.9166 116.473 29.9166H119.638C119.815 29.9166 119.977 29.7911 120.039 29.6021L125.232 13.7877C125.281 13.6411 125.262 13.475 125.182 13.3461ZM130.145 17.4149C130.681 17.0633 131.323 16.8867 132.051 16.8867C132.762 16.8867 133.394 17.0633 133.932 17.4149C134.47 17.7647 134.9 18.2524 135.211 18.8654C135.345 19.1269 135.45 19.4131 135.524 19.7153C135.527 19.7329 135.522 19.7471 135.516 19.7541C135.51 19.763 135.5 19.7736 135.483 19.7736H128.62C128.602 19.7736 128.593 19.763 128.587 19.7541C128.58 19.7471 128.576 19.7329 128.579 19.7153C128.654 19.4149 128.755 19.1305 128.882 18.8725C129.184 18.2541 129.609 17.763 130.145 17.4149ZM138.547 27.3795L138.787 27.0632L136.777 24.4696C136.697 24.3672 136.582 24.3071 136.461 24.3036C136.34 24.2983 136.224 24.3583 136.14 24.4573C135.695 24.9944 135.18 25.3919 134.612 25.6392C134.033 25.8936 133.366 26.0226 132.632 26.0226C131.789 26.0226 131.037 25.8406 130.398 25.4802C129.772 25.1286 129.282 24.6233 128.94 23.9767C128.821 23.7506 128.719 23.5067 128.64 23.2523C128.637 23.24 128.638 23.2276 128.646 23.2152C128.651 23.2082 128.662 23.194 128.681 23.194H139.116C139.336 23.194 139.519 23.0103 139.542 22.7647C139.561 22.5792 139.575 22.3813 139.585 22.1746C139.593 21.9679 139.599 21.7806 139.599 21.6181C139.599 19.8831 139.269 18.3495 138.619 17.0563C137.968 15.7595 137.061 14.7418 135.925 14.0298C134.793 13.3213 133.49 12.9627 132.051 12.9627C130.578 12.9627 129.244 13.3319 128.085 14.0598C126.923 14.7913 125.999 15.8125 125.34 17.0969C124.681 18.3796 124.346 19.8707 124.346 21.528C124.346 23.1693 124.691 24.6551 125.369 25.9484C126.048 27.2452 127.017 28.277 128.252 29.0155C129.477 29.7523 130.924 30.1251 132.553 30.1251C133.833 30.1251 134.992 29.8883 135.999 29.4219C137.015 28.9502 137.872 28.2629 138.547 27.3795Z" fill="white"/>
<path d="M154.773 13.356C154.693 13.2199 154.56 13.1387 154.415 13.1387H151.25C151.079 13.1387 150.925 13.2535 150.857 13.432L146.551 24.7357L146.612 23.7393C146.616 23.6633 146.605 23.5873 146.578 23.5167L142.762 13.432C142.695 13.2535 142.539 13.1387 142.368 13.1387H138.941C138.794 13.1387 138.661 13.2199 138.58 13.356C138.502 13.4938 138.489 13.6634 138.547 13.8136L144.618 29.4636C144.623 29.476 144.623 29.4883 144.618 29.5007L144.455 29.9177C144.167 30.635 143.862 31.1438 143.547 31.43C143.258 31.6915 142.861 31.8258 142.368 31.8258C141.989 31.8258 141.608 31.7392 141.24 31.5661C140.864 31.3912 140.524 31.1509 140.229 30.8523C140.13 30.7533 139.999 30.7127 139.868 30.7374C139.738 30.7622 139.628 30.8523 139.565 30.9813L138.085 34.0431L138.34 34.2975C138.838 34.7922 139.464 35.1826 140.202 35.46C140.929 35.7321 141.666 35.8681 142.394 35.8681C143.233 35.8681 144.014 35.7197 144.719 35.4229C145.441 35.1208 146.103 34.5872 146.685 33.8381C147.248 33.1102 147.764 32.1208 148.218 30.9L154.808 13.8118C154.866 13.6634 154.852 13.492 154.773 13.356Z" fill="white"/>
</svg>
