<svg width="138" height="116" viewBox="0 0 138 116" fill="none" xmlns="http://www.w3.org/2000/svg">
<g clip-path="url(#clip0_8381_18984)">
<path d="M108.442 83.6189C100.168 84.278 92.4174 83.4698 85.3689 81.2091C75.3931 78.009 67.0314 71.9934 60.5126 63.3354C53.4076 53.896 43.435 49.9861 30.0211 51.3848C20.9072 52.3362 13.1002 55.5572 10.5115 56.7234C9.99438 56.956 9.3801 56.7651 9.11057 56.2879L0.219191 40.5646C-0.06601 40.0576 0.143973 39.4283 0.686168 39.1718C3.86099 37.6776 14.2693 33.1681 27.003 31.7127C36.236 30.6569 44.861 31.3876 52.6335 33.8839C62.6061 37.0871 70.9678 43.1026 77.4867 51.7606C84.5917 61.197 94.5611 65.101 107.972 63.6963C117.083 62.7449 124.89 59.5179 127.478 58.3488C127.992 58.1162 128.61 58.307 128.879 58.7842L137.78 74.5016C138.065 75.0087 137.855 75.6379 137.316 75.8944C134.141 77.3886 123.73 81.907 110.999 83.3684C110.144 83.4668 109.291 83.5503 108.442 83.6189ZM111.661 28.4798C111.476 28.1547 111.106 27.9608 110.714 27.9817C103.976 28.3098 93.6084 26.8901 85.6792 17.1525C76.4901 5.864 62.7127 -0.0650751 45.8388 0.000538728C36.4805 0.0393101 28.7738 1.91228 25.5269 2.83981C24.9157 3.01578 24.6305 3.68086 24.9345 4.21173L34.2051 20.5018C34.4182 20.8746 34.8601 21.0714 35.2958 20.9849C38.1384 20.4153 42.0998 19.8426 46.4531 19.8755C56.479 19.944 64.1261 23.1233 69.172 29.3238C78.1637 40.3677 90.5182 46.7382 104.9 47.7463C108.056 47.964 110.974 47.9014 113.541 47.6956C116.371 47.4719 118.769 47.0752 120.574 46.6994C121.226 46.5622 121.558 45.8673 121.238 45.3066L111.661 28.4798Z" fill="#F9BD00"/>
<path d="M47.6737 70.9198C48.7017 77.3768 44.0382 83.4043 37.256 84.3825C30.4707 85.3608 24.1368 80.9229 23.1088 74.4689C22.0808 68.012 26.7443 61.9845 33.5265 61.0062C40.3117 60.028 46.6426 64.4658 47.6737 70.9198ZM111.261 101.848C112.292 108.302 107.625 114.329 100.843 115.31C94.058 116.289 87.7272 111.851 86.6961 105.394C85.6681 98.9398 90.3316 92.9123 97.1169 91.934C103.899 90.9528 110.233 95.3936 111.261 101.848Z" fill="#F9BD00"/>
</g>
<defs>
<clipPath id="clip0_8381_18984">
<rect width="137.816" height="115.446" fill="white" transform="translate(0.0917969)"/>
</clipPath>
</defs>
</svg>
