<svg width="24" height="24" viewBox="0 0 24 24" fill="none" xmlns="http://www.w3.org/2000/svg">
<path d="M2.49902 11.998C2.49902 7.52005 2.49902 5.28005 3.89002 3.88905C5.28102 2.49805 7.52002 2.49805 11.999 2.49805C16.477 2.49805 18.717 2.49805 20.108 3.88905C21.499 5.28005 21.499 7.51905 21.499 11.998C21.499 16.476 21.499 18.716 20.108 20.107C18.717 21.498 16.478 21.498 11.999 21.498C7.52102 21.498 5.28102 21.498 3.89002 20.107C2.49902 18.716 2.49902 16.477 2.49902 11.998Z" stroke="#F9BD00" stroke-width="1.5" stroke-linecap="round" stroke-linejoin="round"/>
<path d="M17.508 6.49805H17.498M16.5 11.998C16.5 13.1915 16.0259 14.3361 15.182 15.18C14.3381 16.0239 13.1935 16.498 12 16.498C10.8065 16.498 9.66193 16.0239 8.81802 15.18C7.97411 14.3361 7.5 13.1915 7.5 11.998C7.5 10.8046 7.97411 9.65998 8.81802 8.81607C9.66193 7.97215 10.8065 7.49805 12 7.49805C13.1935 7.49805 14.3381 7.97215 15.182 8.81607C16.0259 9.65998 16.5 10.8046 16.5 11.998Z" stroke="#F9BD00" stroke-width="1.5" stroke-linecap="round" stroke-linejoin="round"/>
</svg>
