<svg width="64" height="64" viewBox="0 0 64 64" fill="none" xmlns="http://www.w3.org/2000/svg">
<path d="M0 32C0 14.3269 14.3269 0 32 0C49.6731 0 64 14.3269 64 32C64 49.6731 49.6731 64 32 64C14.3269 64 0 49.6731 0 32Z" fill="#2C2D33"/>
<path d="M50.9435 21.6688C50.7412 21.3878 50.4174 21.2212 50.0697 21.2212H22.8215L21.8943 18.4393C21.1597 16.2352 19.1051 14.7539 16.7815 14.7539H11.2662C10.6702 14.7539 10.1885 15.2361 10.1885 15.8316C10.1885 16.4271 10.6707 16.9093 11.2662 16.9093H16.7821C18.1759 16.9093 19.4083 17.7977 19.8507 19.1212L21.0127 22.6094C21.0189 22.6306 21.0251 22.6503 21.0329 22.6704L24.8435 34.1011C24.8497 34.1202 24.86 34.1368 24.8667 34.1559H23.1237C20.7447 34.1564 18.8112 36.0909 18.8112 38.4678C18.8112 40.8447 20.7447 42.7792 23.1226 42.7792H25.8617C25.4933 43.4145 25.2786 44.1497 25.2786 44.9351C25.2786 47.312 27.212 49.2465 29.59 49.2465C31.9679 49.2465 33.9013 47.312 33.9013 44.9351C33.9013 44.1497 33.6866 43.4145 33.3177 42.7792H38.7963C38.428 43.4145 38.2132 44.1497 38.2132 44.9351C38.2132 47.312 40.1477 49.2465 42.5246 49.2465C44.9015 49.2465 46.836 47.312 46.836 44.9351C46.836 42.5583 44.9015 40.6238 42.5246 40.6238C42.4791 40.6238 42.4351 40.6289 42.3901 40.6305C42.3673 40.6289 42.3456 40.6238 42.3223 40.6238H23.1226C21.9342 40.6238 20.9667 39.6573 20.9667 38.4678C20.9667 37.2783 21.9342 36.3119 23.1226 36.3119H27.91H28.5122H42.6509C44.9729 36.3119 47.0274 34.8316 47.7647 32.6265L51.0931 22.6404C51.2027 22.3119 51.1479 21.9502 50.9435 21.6688ZM45.7184 31.9446C45.2787 33.2675 44.0447 34.1559 42.6509 34.1559H28.5122H27.91C27.4459 34.1559 27.0341 33.86 26.8866 33.4191L23.5402 23.3772H48.5749L45.7184 31.9446Z" fill="white"/>
</svg>
