<svg width="629" height="94" viewBox="0 0 629 94" fill="none" xmlns="http://www.w3.org/2000/svg">
<path d="M39.3931 20.4839C86.0601 2.81404 132.355 -3.06647 177.208 3.01696C240.674 11.6187 299.876 43.7529 353.194 98.5179C411.293 158.2 476.017 172.114 551.094 141.016C602.096 119.9 641.456 83.7808 654.329 71.0726C656.892 68.5443 660.791 69.0355 663.209 72.1833L742.969 176.15C745.539 179.496 745.463 184.54 742.781 187.282C727.111 203.345 675.018 253.098 603.997 283.575C552.481 305.683 501.273 313.478 451.821 306.751C388.355 298.123 329.153 265.988 275.847 211.219C217.762 151.543 153.063 137.685 78.0182 168.796C27.0306 189.944 -12.3089 226.108 -25.1821 238.816C-27.7345 241.34 -31.6391 240.865 -34.0618 237.706L-113.875 133.79C-116.446 130.444 -116.369 125.4 -113.698 122.662C-98.0331 106.588 -45.9648 56.7794 25.0519 26.2642C29.8364 24.2064 34.6135 22.2722 39.3881 20.4727L39.3931 20.4839Z" fill="white"/>
</svg>
