<svg width="127" height="30" viewBox="0 0 127 30" fill="none" xmlns="http://www.w3.org/2000/svg">
<path d="M25.7618 21.7544C23.8018 21.9188 21.9669 21.7169 20.2982 21.1542C17.9363 20.3575 15.9566 18.8623 14.413 16.708C12.7299 14.3607 10.3698 13.3872 7.19309 13.7355C5.03481 13.9713 3.18562 14.7734 2.5728 15.0628C2.4513 15.1199 2.3048 15.0735 2.24227 14.9538L0.135799 11.0417C0.0679058 10.9148 0.117932 10.7594 0.246571 10.6951C0.998754 10.3236 3.46434 9.20174 6.47843 8.83911C8.66529 8.57652 10.7074 8.75872 12.5477 9.37859C14.9097 10.1753 16.8893 11.6723 18.4329 13.8266C20.1142 16.1739 22.4761 17.1456 25.651 16.7955C27.8093 16.5579 29.6567 15.7559 30.2713 15.4647C30.3928 15.4075 30.5393 15.454 30.6019 15.5737L32.7101 19.484C32.778 19.6108 32.728 19.7662 32.5993 19.8305C31.8472 20.2021 29.3834 21.3257 26.3675 21.6901C26.1638 21.7151 25.9619 21.7348 25.7618 21.7526V21.7544Z" fill="#F9BD00"/>
<path d="M26.5246 8.0358C26.4799 7.95363 26.3923 7.90718 26.3012 7.91076C24.7057 7.99293 22.2509 7.63923 20.3731 5.21694C18.1952 2.4088 14.9345 0.933272 10.9378 0.949349C8.72232 0.95828 6.89814 1.42452 6.12809 1.65496C5.98337 1.69783 5.91548 1.86396 5.98873 1.99615L8.18453 6.04938C8.23456 6.14227 8.33997 6.1905 8.44181 6.16906C9.11538 6.02794 10.0534 5.88504 11.0843 5.89397C13.4587 5.91183 15.2686 6.70318 16.4639 8.2448C18.5936 10.9922 21.5183 12.5767 24.9237 12.8286C25.6705 12.884 26.362 12.8679 26.9694 12.8161C27.6394 12.7607 28.2076 12.6607 28.6346 12.5678C28.79 12.5338 28.8669 12.3606 28.7918 12.2212L26.5246 8.0358Z" fill="#F9BD00"/>
<path d="M8.46427 21.9744C10.0885 21.9744 11.4051 20.658 11.4051 19.0341C11.4051 17.4102 10.0885 16.0938 8.46427 16.0938C6.84009 16.0938 5.52344 17.4102 5.52344 19.0341C5.52344 20.658 6.84009 21.9744 8.46427 21.9744Z" fill="#F9BD00"/>
<path d="M23.5209 29.6697C25.1451 29.6697 26.4618 28.3533 26.4618 26.7294C26.4618 25.1055 25.1451 23.7891 23.5209 23.7891C21.8967 23.7891 20.5801 25.1055 20.5801 26.7294C20.5801 28.3533 21.8967 29.6697 23.5209 29.6697Z" fill="#F9BD00"/>
<path d="M81.3432 19.4209C81.3021 19.3155 81.2163 19.2387 81.1073 19.2101C80.9984 19.1815 80.8858 19.203 80.7965 19.2726C80.457 19.5388 80.0193 19.6746 79.4958 19.6746C79.0884 19.6746 78.7865 19.562 78.5721 19.3316C78.3541 19.0958 78.2433 18.7456 78.2433 18.2919V13.1669C78.2433 13.149 78.2576 13.1329 78.2773 13.1329H80.9948C81.1895 13.1329 81.3467 12.974 81.3467 12.781V10.6106C81.3467 10.4159 81.1877 10.2587 80.9948 10.2587H78.2773C78.2594 10.2587 78.2433 10.2444 78.2433 10.2248V7.96324C78.2433 7.76853 78.0843 7.61133 77.8896 7.61133H75.1756C74.9809 7.61133 74.8219 7.77031 74.8219 7.96324V10.2248C74.8219 10.2426 74.8076 10.2587 74.7879 10.2587H73.2639C73.0692 10.2587 72.9102 10.4177 72.9102 10.6106V12.781C72.9102 12.9757 73.0692 13.1329 73.2639 13.1329H74.7879C74.8058 13.1329 74.8219 13.1472 74.8219 13.1669V18.358C74.8219 19.7406 75.2096 20.8089 75.9743 21.5324C76.7336 22.2523 77.8074 22.6167 79.1688 22.6167C79.6905 22.6167 80.2051 22.547 80.6964 22.4077C81.2056 22.2648 81.5397 22.0754 81.8863 21.8325L81.9846 21.7574C82.1097 21.6628 82.1561 21.4931 82.0989 21.3484L81.3414 19.4209H81.3432Z" fill="#0D4C3B"/>
<path d="M50.1978 17.5043C50.1281 17.4382 50.037 17.4042 49.9405 17.4078C49.844 17.4114 49.7565 17.4525 49.6922 17.5239L49.6832 17.5328C49.1365 18.1366 48.5201 18.5904 47.8483 18.8833C47.1766 19.1763 46.4333 19.3246 45.6436 19.3246C44.8539 19.3246 44.1142 19.1942 43.4621 18.9351C42.8118 18.6779 42.24 18.3099 41.763 17.8383C41.286 17.3685 40.909 16.804 40.6463 16.1609C40.3819 15.5178 40.2479 14.7962 40.2479 14.0173C40.2479 13.2385 40.3819 12.5186 40.6463 11.8737C40.9108 11.2306 41.286 10.6679 41.763 10.1981C42.24 9.72829 42.8118 9.35851 43.4621 9.10128C44.1142 8.84226 44.8485 8.71185 45.6436 8.71185C46.4387 8.71185 47.1766 8.86012 47.8483 9.15308C48.5201 9.44604 49.1383 9.89442 49.694 10.4928C49.7583 10.5625 49.8458 10.6018 49.9405 10.6054C50.0352 10.609 50.1245 10.575 50.1942 10.5089L52.147 8.67255C52.2828 8.54394 52.2953 8.33136 52.1667 8.17952C51.3788 7.24705 50.4015 6.53429 49.2616 6.06091C48.1306 5.5911 46.8657 5.35352 45.5025 5.35352C44.2179 5.35352 43.019 5.56788 41.9345 5.98946C40.85 6.41103 39.887 7.01839 39.0723 7.79367C38.2558 8.57073 37.6144 9.49963 37.1677 10.5536C36.7193 11.6075 36.4941 12.7722 36.4941 14.0155C36.4941 15.2588 36.721 16.4217 37.1677 17.4775C37.6162 18.5332 38.2522 19.4603 39.0598 20.2374C39.8673 21.0127 40.8304 21.62 41.9238 22.0434C43.0137 22.465 44.2107 22.6793 45.4792 22.6793C46.8585 22.6793 48.1324 22.4364 49.2634 21.9594C50.4015 21.4789 51.377 20.7697 52.172 19.848C52.2953 19.7051 52.2846 19.4925 52.147 19.3621L50.1942 17.5025L50.1978 17.5043Z" fill="#0D4C3B"/>
<path d="M62.4661 11.3325C61.4853 10.4751 60.097 10.041 58.3372 10.041C57.3831 10.041 56.4505 10.1661 55.5625 10.4126C54.662 10.6627 54.0849 10.8806 53.4328 11.3808L53.2202 11.5433C53.079 11.6505 53.0379 11.8417 53.1219 11.9971L54.1832 13.9674C54.2332 14.0603 54.3225 14.1264 54.4262 14.146C54.5298 14.1657 54.637 14.1389 54.7192 14.071C55.1158 13.7405 55.6125 13.478 56.1968 13.2886C56.7899 13.0975 57.3992 13.001 58.0102 13.001C58.8839 13.001 59.5324 13.1921 59.9416 13.5691C60.3061 13.9049 60.5008 14.3568 60.5383 14.9481C60.5383 14.9606 60.533 14.9713 60.5294 14.9749C60.524 14.9803 60.5169 14.9856 60.5044 14.9856H57.903C56.6881 14.9856 55.6929 15.1482 54.9425 15.4697C54.1671 15.802 53.5972 16.2664 53.2488 16.8506C52.9057 17.424 52.7324 18.076 52.7324 18.7888C52.7324 19.5015 52.9307 20.1911 53.3238 20.7752C53.7133 21.3558 54.2707 21.8149 54.98 22.1364C55.675 22.4526 56.4898 22.6133 57.4045 22.6133C58.489 22.6133 59.4038 22.4079 60.1274 22.0042C60.3132 21.9006 60.4865 21.7845 60.6455 21.6577C60.6562 21.6487 60.6687 21.6469 60.6813 21.6541C60.6938 21.6594 60.6991 21.6702 60.6991 21.6827V22.1078C60.6991 22.3025 60.8581 22.4615 61.0529 22.4615H63.6149C63.8097 22.4615 63.9687 22.3025 63.9687 22.1078V15.3161C63.9687 13.5405 63.4649 12.1989 62.4697 11.329L62.4661 11.3325ZM60.5455 17.5294L60.5419 18.4261C60.3382 18.9138 60.0238 19.2729 59.5825 19.5265C59.1108 19.7981 58.5676 19.9356 57.9673 19.9356C57.367 19.9356 56.8757 19.8124 56.5487 19.5712C56.2468 19.3479 56.1056 19.0657 56.1056 18.6834C56.1056 18.344 56.2218 18.0778 56.4701 17.8456C56.6416 17.6866 57.0633 17.4955 58.096 17.4955H60.5097C60.5276 17.4955 60.5437 17.5097 60.5437 17.5294H60.5455Z" fill="#0D4C3B"/>
<path d="M71.762 10.0408C70.5936 10.0408 69.5984 10.2606 68.8051 10.6911C68.5282 10.8411 68.2727 11.018 68.0458 11.2181C68.0422 11.2216 68.0297 11.2323 68.0118 11.2234C67.9993 11.2181 67.9922 11.2073 67.9922 11.193V10.5232C67.9922 10.3285 67.8332 10.1695 67.6384 10.1695H65.0549C64.8602 10.1695 64.7012 10.3285 64.7012 10.5232V22.1112C64.7012 22.3059 64.8602 22.4631 65.0549 22.4631H67.7689C67.9636 22.4631 68.1226 22.3041 68.1226 22.1112V16.4914C68.1226 15.4088 68.3942 14.5907 68.9284 14.0619C69.4644 13.5314 70.2076 13.2634 71.1331 13.2634C71.2243 13.2634 71.3172 13.267 71.4119 13.2741C71.4923 13.2795 71.5816 13.2956 71.6781 13.3188C71.7835 13.3456 71.8942 13.3224 71.98 13.2545C72.0658 13.1866 72.1158 13.0866 72.1158 12.9758V10.3928C72.1158 10.198 71.9568 10.0391 71.762 10.0391V10.0408Z" fill="#0D4C3B"/>
<path d="M102.474 10.3218C102.408 10.2271 102.301 10.1699 102.185 10.1699H99.7745C99.6262 10.1699 99.494 10.2628 99.444 10.4004L96.655 17.9941C96.655 17.9941 96.6479 18.0156 96.6246 18.0156C96.6014 18.0156 96.596 17.9995 96.5943 17.9941L93.8375 10.4021C93.7874 10.2628 93.6534 10.1699 93.5051 10.1699H91.2254C91.0789 10.1699 90.9466 10.2628 90.8948 10.3986L88.0666 17.9656C88.0666 17.9656 88.0576 17.987 88.0362 17.987C88.013 17.987 88.0076 17.9709 88.0058 17.9656L85.308 10.4039C85.2579 10.2646 85.1239 10.1699 84.9756 10.1699H82.4136C82.2974 10.1699 82.1902 10.2271 82.1241 10.32C82.058 10.4129 82.0419 10.5361 82.083 10.6433L86.3371 22.2314C86.3871 22.3689 86.5211 22.4618 86.6676 22.4618H89.2725C89.4173 22.4618 89.5513 22.3707 89.6031 22.2349L92.2849 15.2039C92.2849 15.2039 92.2938 15.1824 92.3152 15.1824C92.3384 15.1824 92.3438 15.1985 92.3456 15.2039L94.9756 22.2331C95.0274 22.3707 95.1596 22.4618 95.3061 22.4618H97.911C98.0575 22.4618 98.1915 22.3689 98.2416 22.2314L102.517 10.6433C102.556 10.5343 102.542 10.4147 102.476 10.32L102.474 10.3218Z" fill="#0D4C3B"/>
<path d="M113.475 20.6055L113.673 20.3733L112.019 18.4726C111.953 18.3976 111.858 18.3529 111.76 18.3511C111.66 18.3475 111.563 18.3904 111.495 18.4637C111.127 18.8567 110.704 19.1478 110.236 19.33C109.759 19.5158 109.21 19.6105 108.606 19.6105C107.911 19.6105 107.293 19.4765 106.768 19.2139C106.253 18.9567 105.849 18.5869 105.567 18.1117C105.469 17.9456 105.385 17.767 105.321 17.5812C105.317 17.5723 105.321 17.5633 105.324 17.5544C105.328 17.549 105.337 17.5401 105.353 17.5401H113.945C114.125 17.5401 114.275 17.4044 114.295 17.2257C114.309 17.09 114.322 16.9435 114.329 16.7916C114.336 16.6416 114.34 16.504 114.34 16.3843C114.34 15.1143 114.068 13.9888 113.534 13.0421C112.998 12.0917 112.251 11.3451 111.315 10.8234C110.382 10.3036 109.31 10.041 108.126 10.041C106.941 10.041 105.814 10.3125 104.86 10.8449C103.902 11.3808 103.143 12.1293 102.6 13.0707C102.056 14.0103 101.781 15.1035 101.781 16.3183C101.781 17.533 102.064 18.6101 102.623 19.5569C103.182 20.5072 103.981 21.2629 104.995 21.8059C106.005 22.3454 107.197 22.6169 108.537 22.6169C109.591 22.6169 110.545 22.4436 111.374 22.1025C112.21 21.7577 112.916 21.2539 113.471 20.6055H113.475ZM106.559 13.3029C107.002 13.0457 107.529 12.917 108.129 12.917C108.73 12.917 109.235 13.0474 109.678 13.3029C110.121 13.5601 110.475 13.9174 110.732 14.3658C110.841 14.5569 110.929 14.7677 110.99 14.9892C110.993 15.0017 110.99 15.0124 110.984 15.0178C110.979 15.0231 110.972 15.0321 110.958 15.0321H105.306C105.292 15.0321 105.283 15.0249 105.28 15.0178C105.274 15.0124 105.271 15.0017 105.274 14.9892C105.335 14.7695 105.419 14.5605 105.523 14.3711C105.773 13.9174 106.121 13.5566 106.562 13.3029H106.559Z" fill="#0D4C3B"/>
<path d="M126.833 10.3309C126.767 10.2308 126.658 10.1719 126.538 10.1719H123.933C123.792 10.1719 123.663 10.2558 123.608 10.3862L120.062 18.6695L120.112 17.9389C120.115 17.8835 120.106 17.8282 120.085 17.7764L116.942 10.3862C116.887 10.2558 116.76 10.1719 116.617 10.1719H113.796C113.676 10.1719 113.565 10.2308 113.501 10.3309C113.435 10.4309 113.424 10.5559 113.472 10.6649L118.471 22.1333C118.471 22.1333 118.475 22.1511 118.471 22.1601L118.336 22.4655C118.1 22.9907 117.848 23.3641 117.589 23.5731C117.351 23.766 117.024 23.8643 116.617 23.8643C116.304 23.8643 115.992 23.7999 115.69 23.6749C115.381 23.5463 115.1 23.3694 114.855 23.1515C114.775 23.0783 114.666 23.0479 114.56 23.0658C114.453 23.0836 114.362 23.1497 114.31 23.2444L113.092 25.488L113.303 25.6738C113.714 26.0365 114.228 26.3223 114.836 26.5259C115.434 26.726 116.042 26.826 116.64 26.826C117.33 26.826 117.975 26.7171 118.554 26.4991C119.149 26.2776 119.693 25.8864 120.172 25.3362C120.637 24.8039 121.062 24.0786 121.435 23.1837L126.862 10.6631C126.91 10.5542 126.899 10.4291 126.833 10.3291V10.3309Z" fill="#0D4C3B"/>
</svg>
