<svg width="295" height="69" viewBox="0 0 295 69" fill="none" xmlns="http://www.w3.org/2000/svg">
<g filter="url(#filter0_d_8381_22542)">
<rect x="0.5" y="0.554688" width="270" height="68" rx="32" fill="white" shape-rendering="crispEdges"/>
<path d="M55.3678 33.6055L39.4805 50.2506C39.6589 50.8829 39.9795 51.466 40.4178 51.9554C40.8561 52.4447 41.4005 52.8274 42.0094 53.0741C42.6182 53.3209 43.2755 53.4251 43.9308 53.3789C44.5861 53.3327 45.2222 53.1373 45.7905 52.8076L63.6667 42.6265L55.3678 33.6055Z" fill="#EA4335"/>
<path d="M71.4327 30.7755L63.7024 26.3477L55.001 33.9834L63.7378 42.602L71.4092 38.2216C72.0888 37.8658 72.658 37.3307 73.0552 36.6744C73.4524 36.0181 73.6623 35.2656 73.6623 34.4985C73.6623 33.7313 73.4524 32.9789 73.0552 32.3226C72.658 31.6662 72.0888 31.1312 71.4092 30.7753L71.4327 30.7755Z" fill="#FBBC04"/>
<path d="M39.4801 18.6641C39.3841 19.0191 39.3363 19.3854 39.3379 19.7532V49.1602C39.3389 49.5278 39.3866 49.8938 39.4801 50.2494L55.912 34.0305L39.4801 18.6641Z" fill="#4285F4"/>
<path d="M55.4862 34.4574L63.7022 26.3479L45.8497 16.1194C45.178 15.726 44.4141 15.5177 43.6357 15.5156C41.704 15.5119 40.0058 16.7939 39.4805 18.6529L55.4862 34.4574Z" fill="#34A853"/>
<path d="M109.032 19.5547C108.923 19.2199 108.779 18.92 108.6 18.6548C108.424 18.3864 108.214 18.1577 107.969 17.9688C107.727 17.7798 107.451 17.6357 107.143 17.5362C106.835 17.4368 106.497 17.3871 106.129 17.3871C105.526 17.3871 104.977 17.5429 104.483 17.8544C103.99 18.166 103.597 18.625 103.305 19.2315C103.013 19.8381 102.868 20.5821 102.868 21.4638C102.868 22.3454 103.015 23.0895 103.31 23.696C103.605 24.3026 104.005 24.7616 104.508 25.0732C105.012 25.3847 105.579 25.5405 106.209 25.5405C106.792 25.5405 107.306 25.4162 107.75 25.1676C108.197 24.9157 108.545 24.5611 108.794 24.1037C109.046 23.643 109.172 23.1011 109.172 22.478L109.549 22.5575H106.487V21.4638H110.365V22.5575C110.365 23.3961 110.186 24.1252 109.828 24.745C109.473 25.3648 108.983 25.8454 108.356 26.1868C107.733 26.5249 107.017 26.6939 106.209 26.6939C105.307 26.6939 104.515 26.4818 103.832 26.0575C103.153 25.6333 102.622 25.0301 102.241 24.2479C101.863 23.4657 101.674 22.5376 101.674 21.4638C101.674 20.6584 101.782 19.9342 101.998 19.2912C102.216 18.6449 102.525 18.0947 102.922 17.6406C103.32 17.1866 103.791 16.8385 104.334 16.5966C104.878 16.3546 105.476 16.2337 106.129 16.2337C106.666 16.2337 107.166 16.3149 107.63 16.4773C108.098 16.6364 108.514 16.8634 108.878 17.1584C109.246 17.45 109.553 17.7997 109.798 18.2074C110.043 18.6117 110.212 19.0608 110.305 19.5547H109.032ZM112.577 26.5547V16.3729H118.721V17.4666H113.809V20.907H118.403V22.0007H113.809V25.4609H118.801V26.5547H112.577ZM120.487 17.4666V16.3729H128.123V17.4666H124.922V26.5547H123.689V17.4666H120.487ZM135.397 16.3729V26.5547H134.164V16.3729H135.397ZM137.412 17.4666V16.3729H145.048V17.4666H141.847V26.5547H140.614V17.4666H137.412ZM159.68 21.4638C159.68 22.5376 159.486 23.4657 159.098 24.2479C158.71 25.0301 158.178 25.6333 157.502 26.0575C156.826 26.4818 156.054 26.6939 155.185 26.6939C154.317 26.6939 153.545 26.4818 152.868 26.0575C152.192 25.6333 151.66 25.0301 151.273 24.2479C150.885 23.4657 150.691 22.5376 150.691 21.4638C150.691 20.3899 150.885 19.4619 151.273 18.6797C151.66 17.8975 152.192 17.2943 152.868 16.87C153.545 16.4458 154.317 16.2337 155.185 16.2337C156.054 16.2337 156.826 16.4458 157.502 16.87C158.178 17.2943 158.71 17.8975 159.098 18.6797C159.486 19.4619 159.68 20.3899 159.68 21.4638ZM158.486 21.4638C158.486 20.5821 158.339 19.8381 158.044 19.2315C157.752 18.625 157.356 18.166 156.856 17.8544C156.359 17.5429 155.802 17.3871 155.185 17.3871C154.569 17.3871 154.01 17.5429 153.51 17.8544C153.013 18.166 152.617 18.625 152.322 19.2315C152.03 19.8381 151.884 20.5821 151.884 21.4638C151.884 22.3454 152.03 23.0895 152.322 23.696C152.617 24.3026 153.013 24.7616 153.51 25.0732C154.01 25.3847 154.569 25.5405 155.185 25.5405C155.802 25.5405 156.359 25.3847 156.856 25.0732C157.356 24.7616 157.752 24.3026 158.044 23.696C158.339 23.0895 158.486 22.3454 158.486 21.4638ZM169.927 16.3729V26.5547H168.733L163.185 18.5604H163.086V26.5547H161.853V16.3729H163.046L168.614 24.3871H168.713V16.3729H169.927Z" fill="#8B8D97"/>
<path d="M114.609 38.6143C114.444 38.0973 114.223 37.6342 113.944 37.2251C113.672 36.8104 113.345 36.4581 112.964 36.1683C112.583 35.8729 112.149 35.6484 111.66 35.495C111.177 35.3416 110.646 35.2649 110.066 35.2649C109.083 35.2649 108.197 35.5178 107.407 36.0234C106.618 36.5291 105.993 37.2706 105.532 38.2479C105.078 39.2195 104.85 40.4098 104.85 41.8189C104.85 43.2337 105.081 44.4297 105.541 45.407C106.001 46.3842 106.632 47.1257 107.433 47.6314C108.234 48.1371 109.146 48.3899 110.169 48.3899C111.118 48.3899 111.944 48.1967 112.649 47.8104C113.359 47.424 113.907 46.8786 114.294 46.174C114.686 45.4638 114.882 44.6286 114.882 43.6683L115.564 43.7962H110.569V41.6229H117.43V43.6087C117.43 45.0746 117.118 46.3473 116.493 47.4268C115.873 48.5007 115.015 49.3303 113.919 49.9155C112.828 50.5007 111.578 50.7933 110.169 50.7933C108.589 50.7933 107.203 50.4297 106.01 49.7024C104.822 48.9751 103.896 47.9439 103.231 46.6087C102.566 45.2678 102.234 43.6768 102.234 41.8359C102.234 40.4439 102.427 39.1939 102.814 38.0859C103.2 36.978 103.743 36.0376 104.441 35.2649C105.146 34.4865 105.973 33.8928 106.922 33.4837C107.876 33.0689 108.919 32.8615 110.049 32.8615C110.993 32.8615 111.87 33.0007 112.683 33.2791C113.501 33.5575 114.228 33.9524 114.865 34.4638C115.507 34.9751 116.038 35.5831 116.458 36.2876C116.879 36.9865 117.163 37.7621 117.311 38.6143H114.609ZM126.183 50.8189C124.955 50.8189 123.884 50.5376 122.97 49.9751C122.055 49.4126 121.345 48.6257 120.839 47.6143C120.333 46.603 120.08 45.4212 120.08 44.0689C120.08 42.7109 120.333 41.5234 120.839 40.5064C121.345 39.4893 122.055 38.6996 122.97 38.1371C123.884 37.5746 124.955 37.2933 126.183 37.2933C127.41 37.2933 128.481 37.5746 129.396 38.1371C130.311 38.6996 131.021 39.4893 131.526 40.5064C132.032 41.5234 132.285 42.7109 132.285 44.0689C132.285 45.4212 132.032 46.603 131.526 47.6143C131.021 48.6257 130.311 49.4126 129.396 49.9751C128.481 50.5376 127.41 50.8189 126.183 50.8189ZM126.191 48.6797C126.987 48.6797 127.646 48.4695 128.169 48.049C128.691 47.6286 129.078 47.0689 129.328 46.37C129.583 45.6712 129.711 44.9013 129.711 44.0604C129.711 43.2251 129.583 42.4581 129.328 41.7592C129.078 41.0547 128.691 40.4893 128.169 40.0632C127.646 39.6371 126.987 39.424 126.191 39.424C125.39 39.424 124.725 39.6371 124.197 40.0632C123.674 40.4893 123.285 41.0547 123.029 41.7592C122.779 42.4581 122.654 43.2251 122.654 44.0604C122.654 44.9013 122.779 45.6712 123.029 46.37C123.285 47.0689 123.674 47.6286 124.197 48.049C124.725 48.4695 125.39 48.6797 126.191 48.6797ZM140.744 50.8189C139.516 50.8189 138.445 50.5376 137.531 49.9751C136.616 49.4126 135.906 48.6257 135.4 47.6143C134.894 46.603 134.641 45.4212 134.641 44.0689C134.641 42.7109 134.894 41.5234 135.4 40.5064C135.906 39.4893 136.616 38.6996 137.531 38.1371C138.445 37.5746 139.516 37.2933 140.744 37.2933C141.971 37.2933 143.042 37.5746 143.957 38.1371C144.872 38.6996 145.582 39.4893 146.087 40.5064C146.593 41.5234 146.846 42.7109 146.846 44.0689C146.846 45.4212 146.593 46.603 146.087 47.6143C145.582 48.6257 144.872 49.4126 143.957 49.9751C143.042 50.5376 141.971 50.8189 140.744 50.8189ZM140.752 48.6797C141.548 48.6797 142.207 48.4695 142.729 48.049C143.252 47.6286 143.639 47.0689 143.889 46.37C144.144 45.6712 144.272 44.9013 144.272 44.0604C144.272 43.2251 144.144 42.4581 143.889 41.7592C143.639 41.0547 143.252 40.4893 142.729 40.0632C142.207 39.6371 141.548 39.424 140.752 39.424C139.951 39.424 139.286 39.6371 138.758 40.0632C138.235 40.4893 137.846 41.0547 137.59 41.7592C137.34 42.4581 137.215 43.2251 137.215 44.0604C137.215 44.9013 137.34 45.6712 137.59 46.37C137.846 47.0689 138.235 47.6286 138.758 48.049C139.286 48.4695 139.951 48.6797 140.752 48.6797ZM155.279 55.7365C154.239 55.7365 153.344 55.6001 152.594 55.3274C151.85 55.0547 151.242 54.6939 150.771 54.245C150.299 53.7962 149.947 53.3047 149.714 52.7706L151.904 51.8672C152.057 52.1172 152.262 52.3814 152.518 52.6598C152.779 52.9439 153.131 53.1854 153.575 53.3842C154.023 53.5831 154.6 53.6825 155.305 53.6825C156.271 53.6825 157.069 53.4467 157.7 52.9751C158.33 52.5092 158.646 51.7649 158.646 50.7422V48.1683H158.484C158.33 48.4467 158.109 48.7564 157.819 49.0973C157.535 49.4382 157.143 49.7337 156.643 49.9837C156.143 50.2337 155.492 50.3587 154.691 50.3587C153.657 50.3587 152.725 50.1172 151.896 49.6342C151.072 49.1456 150.418 48.4268 149.935 47.478C149.458 46.5234 149.219 45.3501 149.219 43.9581C149.219 42.5661 149.455 41.3729 149.927 40.3786C150.404 39.3842 151.057 38.6229 151.887 38.0945C152.717 37.5604 153.657 37.2933 154.708 37.2933C155.521 37.2933 156.177 37.4297 156.677 37.7024C157.177 37.9695 157.566 38.282 157.844 38.6399C158.128 38.9979 158.347 39.3132 158.501 39.5859H158.688V37.4638H161.185V50.8445C161.185 51.9695 160.924 52.8928 160.401 53.6143C159.878 54.3359 159.171 54.87 158.279 55.2166C157.393 55.5632 156.393 55.7365 155.279 55.7365ZM155.253 48.245C155.986 48.245 156.606 48.0746 157.111 47.7337C157.623 47.3871 158.009 46.8928 158.271 46.2507C158.538 45.603 158.671 44.8274 158.671 43.924C158.671 43.0433 158.54 42.2678 158.279 41.5973C158.018 40.9268 157.634 40.4041 157.128 40.0291C156.623 39.6484 155.998 39.4581 155.253 39.4581C154.486 39.4581 153.847 39.657 153.336 40.0547C152.825 40.4467 152.438 40.9808 152.177 41.657C151.921 42.3331 151.793 43.0888 151.793 43.924C151.793 44.782 151.924 45.5348 152.185 46.1825C152.447 46.8303 152.833 47.3359 153.344 47.6996C153.861 48.0632 154.498 48.245 155.253 48.245ZM167.251 33.1001V50.5547H164.703V33.1001H167.251ZM176.422 50.8189C175.132 50.8189 174.021 50.5433 173.089 49.9922C172.163 49.4354 171.447 48.6541 170.941 47.6484C170.441 46.6371 170.191 45.4524 170.191 44.0945C170.191 42.7536 170.441 41.5717 170.941 40.549C171.447 39.5263 172.152 38.728 173.055 38.1541C173.964 37.5803 175.027 37.2933 176.243 37.2933C176.981 37.2933 177.697 37.4155 178.39 37.6598C179.083 37.9041 179.706 38.2876 180.257 38.8104C180.808 39.3331 181.243 40.0121 181.561 40.8473C181.879 41.6768 182.038 42.6854 182.038 43.8729V44.7763H171.632V42.8672H179.541C179.541 42.1967 179.404 41.603 179.132 41.0859C178.859 40.5632 178.475 40.1513 177.981 39.8501C177.493 39.549 176.919 39.3984 176.26 39.3984C175.544 39.3984 174.919 39.5746 174.385 39.9268C173.856 40.2734 173.447 40.728 173.157 41.2905C172.873 41.8473 172.731 42.4524 172.731 43.1058V44.5973C172.731 45.4723 172.885 46.2166 173.191 46.8303C173.504 47.4439 173.939 47.9126 174.495 48.2365C175.052 48.5547 175.703 48.7138 176.447 48.7138C176.93 48.7138 177.37 48.6456 177.768 48.5092C178.166 48.3672 178.51 48.157 178.799 47.8786C179.089 47.6001 179.311 47.2564 179.464 46.8473L181.876 47.282C181.683 47.9922 181.336 48.6143 180.836 49.1484C180.342 49.6768 179.72 50.0888 178.97 50.3842C178.225 50.674 177.376 50.8189 176.422 50.8189ZM191.622 50.5547V33.1001H197.843C199.201 33.1001 200.326 33.3473 201.218 33.8416C202.11 34.3359 202.778 35.0121 203.221 35.87C203.664 36.7223 203.886 37.6825 203.886 38.7507C203.886 39.8246 203.661 40.7905 203.212 41.6484C202.769 42.5007 202.099 43.1768 201.201 43.6768C200.309 44.1712 199.187 44.4183 197.835 44.4183H193.556V42.1854H197.596C198.454 42.1854 199.15 42.0376 199.684 41.7422C200.218 41.4411 200.61 41.032 200.86 40.5149C201.11 39.9979 201.235 39.4098 201.235 38.7507C201.235 38.0916 201.11 37.5064 200.86 36.995C200.61 36.4837 200.215 36.0831 199.675 35.7933C199.141 35.5036 198.437 35.3587 197.562 35.3587H194.255V50.5547H191.622ZM209.417 33.1001V50.5547H206.869V33.1001H209.417ZM216.755 50.8445C215.925 50.8445 215.175 50.6911 214.505 50.3842C213.834 50.0717 213.303 49.62 212.911 49.0291C212.525 48.4382 212.331 47.7138 212.331 46.8558C212.331 46.1172 212.474 45.5092 212.758 45.032C213.042 44.5547 213.425 44.1768 213.908 43.8984C214.391 43.62 214.931 43.4098 215.527 43.2678C216.124 43.1257 216.732 43.0178 217.351 42.9439C218.135 42.853 218.772 42.7791 219.26 42.7223C219.749 42.6598 220.104 42.5604 220.326 42.424C220.547 42.2876 220.658 42.0661 220.658 41.7592V41.6996C220.658 40.9553 220.448 40.3786 220.027 39.9695C219.613 39.5604 218.993 39.3558 218.17 39.3558C217.312 39.3558 216.635 39.5462 216.141 39.9268C215.652 40.3018 215.314 40.7195 215.127 41.1797L212.732 40.6342C213.016 39.8388 213.431 39.1967 213.976 38.7081C214.527 38.2138 215.161 37.8558 215.877 37.6342C216.593 37.407 217.346 37.2933 218.135 37.2933C218.658 37.2933 219.212 37.3558 219.797 37.4808C220.388 37.6001 220.939 37.8217 221.451 38.1456C221.968 38.4695 222.391 38.9325 222.721 39.5348C223.05 40.1314 223.215 40.907 223.215 41.8615V50.5547H220.726V48.7649H220.624C220.459 49.0945 220.212 49.4183 219.883 49.7365C219.553 50.0547 219.13 50.3189 218.613 50.5291C218.096 50.7393 217.476 50.8445 216.755 50.8445ZM217.309 48.799C218.013 48.799 218.616 48.6598 219.116 48.3814C219.621 48.103 220.005 47.7393 220.266 47.2905C220.533 46.8359 220.667 46.3501 220.667 45.8331V44.1456C220.576 44.2365 220.4 44.3217 220.138 44.4013C219.883 44.4751 219.59 44.5405 219.26 44.5973C218.931 44.6484 218.61 44.6967 218.297 44.7422C217.985 44.782 217.724 44.8161 217.513 44.8445C217.019 44.907 216.567 45.0121 216.158 45.1598C215.755 45.3075 215.431 45.5206 215.187 45.799C214.948 46.0717 214.829 46.4354 214.829 46.8899C214.829 47.5206 215.062 47.9979 215.527 48.3217C215.993 48.6399 216.587 48.799 217.309 48.799ZM227.851 55.4638C227.471 55.4638 227.124 55.4325 226.811 55.37C226.499 55.3132 226.266 55.2507 226.113 55.1825L226.726 53.0945C227.192 53.2195 227.607 53.2734 227.971 53.2564C228.334 53.2393 228.655 53.103 228.934 52.8473C229.218 52.5916 229.468 52.174 229.684 51.5945L229.999 50.7251L225.209 37.4638H227.936L231.252 47.6229H231.388L234.703 37.4638H237.439L232.044 52.3018C231.794 52.9837 231.476 53.5604 231.09 54.032C230.703 54.5092 230.243 54.8672 229.709 55.1058C229.175 55.3445 228.556 55.4638 227.851 55.4638Z" fill="#2C2D33"/>
</g>
<defs>
<filter id="filter0_d_8381_22542" x="-23.5" y="-22.4453" width="318" height="116" filterUnits="userSpaceOnUse" color-interpolation-filters="sRGB">
<feFlood flood-opacity="0" result="BackgroundImageFix"/>
<feColorMatrix in="SourceAlpha" type="matrix" values="0 0 0 0 0 0 0 0 0 0 0 0 0 0 0 0 0 0 127 0" result="hardAlpha"/>
<feOffset dy="1"/>
<feGaussianBlur stdDeviation="12"/>
<feComposite in2="hardAlpha" operator="out"/>
<feColorMatrix type="matrix" values="0 0 0 0 0 0 0 0 0 0 0 0 0 0 0 0 0 0 0.08 0"/>
<feBlend mode="normal" in2="BackgroundImageFix" result="effect1_dropShadow_8381_22542"/>
<feBlend mode="normal" in="SourceGraphic" in2="effect1_dropShadow_8381_22542" result="shape"/>
</filter>
</defs>
</svg>
