<svg width="301" height="301" viewBox="0 0 301 301" fill="none" xmlns="http://www.w3.org/2000/svg">
<path d="M0 150.5C0 67.3811 67.3811 0 150.5 0C233.619 0 301 67.3811 301 150.5C301 233.619 233.619 301 150.5 301C67.3811 301 0 233.619 0 150.5Z" fill="white"/>
<path d="M148.38 48.0001C131.725 47.9601 101.409 63.9894 100.448 78.2401C99.4872 92.4908 102.39 93.369 103.74 94.1486H119.374C122.946 86.0822 127.297 81.3668 138.711 81.4629C150.125 81.5591 162.645 95.8365 157.362 108.48C152.08 121.124 147.199 125.527 140.7 139.2C134.2 152.873 132.029 173.525 140.562 190.697L159.831 191.04C155.062 166.528 180.306 144.689 190.345 129.6C200.384 114.511 201.338 108.76 201.454 96.2744C201.365 84.4262 197.075 72.5862 187.74 62.9486C178.404 53.3111 165.034 48.0402 148.38 48.0001ZM149.339 207.017C136.452 207.017 126.025 217.445 126.025 230.331C126.025 243.219 136.452 253.714 149.339 253.714C162.226 253.714 172.654 243.218 172.654 230.331C172.654 217.445 162.227 207.017 149.339 207.017Z" fill="#0D503F"/>
</svg>
