<svg width="19" height="19" viewBox="0 0 19 19" fill="none" xmlns="http://www.w3.org/2000/svg">
<g clip-path="url(#clip0_8381_22411)">
<path d="M17.997 1.22088C17.9583 1.13299 17.888 1.06268 17.8037 1.02752C17.7579 1.00643 13.2579 -0.884976 9.556 2.81346C8.84935 3.5201 8.16732 4.3533 7.54154 5.23221L6.68725 5.03534C5.39701 4.73651 4.06811 5.1162 3.12943 6.05135L0.798574 8.38573C0.179824 9.00448 0.57709 10.0556 1.43842 10.1224L4.72201 10.3861C4.57787 10.7693 4.45482 11.1455 4.38451 11.3951C4.32123 11.6166 4.33178 11.8451 4.39857 12.056C3.80443 12.2178 3.26303 12.5131 2.95717 12.8189C2.28217 13.4904 1.681 16.433 1.5685 17.0166C1.51928 17.2978 1.76889 17.5123 2.00795 17.456C2.59154 17.34 5.53412 16.7389 6.20561 16.0674C6.52553 15.7474 6.81381 15.199 6.97201 14.626C7.19701 14.6963 7.42553 14.6963 7.63295 14.6365H7.63646C7.88607 14.5662 8.2517 14.4502 8.64193 14.299L8.90561 17.5826C8.9724 18.4439 10.0271 18.8377 10.6423 18.2224L12.9767 15.8881C13.9119 14.9529 14.2951 13.6205 13.9927 12.3303L13.7958 11.476C14.6747 10.8502 15.5079 10.1681 16.2146 9.46151C19.913 5.76659 18.0181 1.26659 17.997 1.22088ZM1.33295 8.91659L3.66381 6.58221C4.41967 5.82635 5.48842 5.52401 6.5185 5.76659L7.08451 5.89666C6.24428 7.15877 5.53412 8.48065 5.02084 9.65487L1.49818 9.37362C1.26967 9.35252 1.17123 9.07479 1.33295 8.91659ZM5.67475 15.54C5.34779 15.867 3.72709 16.3205 2.41928 16.6088C2.70404 15.2974 3.15756 13.6803 3.48803 13.3533C3.77279 13.065 4.32826 12.8154 4.86967 12.717L6.31107 14.1584C6.30756 14.1724 6.30756 14.1865 6.30404 14.2041C6.19857 14.7209 5.94193 15.2728 5.67475 15.54ZM7.02475 13.8068L5.21771 11.9998C5.11225 11.8943 5.07006 11.7361 5.10873 11.5955C5.14037 11.4865 5.20014 11.2826 5.27748 11.0541L7.97045 13.7471C7.80873 13.8033 7.59428 13.8701 7.42904 13.9158C7.28842 13.958 7.13373 13.9158 7.02475 13.8068ZM13.2579 12.506C13.497 13.5431 13.1947 14.6084 12.4423 15.3607L10.1079 17.6951C9.94623 17.8568 9.67201 17.7549 9.65092 17.5299L9.36967 14.0072C10.5439 13.4974 11.8658 12.7838 13.1279 11.9435L13.2579 12.506ZM8.74037 13.4553L5.56576 10.2806C6.46225 8.09042 8.17436 5.2533 10.0833 3.34432C12.263 1.16463 15.1283 0.83768 17.3607 1.66034C17.6244 2.39862 18.672 5.94588 15.6767 8.9412C13.7677 10.8502 10.9306 12.5623 8.74037 13.4553Z" fill="#F9BD00"/>
<path d="M11.4892 3.87783C10.4802 4.88682 10.4802 6.52158 11.4892 7.53408C12.4981 8.54307 14.1329 8.54307 15.1454 7.53408C16.1544 6.5251 16.1544 4.88682 15.1454 3.87783C14.1329 2.86885 12.4981 2.86885 11.4892 3.87783ZM14.6146 7.00322C13.8974 7.72041 12.7372 7.72041 12.02 7.00322C11.3028 6.28604 11.3028 5.12588 12.02 4.40869C12.7372 3.6915 13.8974 3.6915 14.6146 4.40869C15.3282 5.12588 15.3282 6.28955 14.6146 7.00322Z" fill="#F9BD00"/>
</g>
<defs>
<clipPath id="clip0_8381_22411">
<rect width="18" height="18" fill="white" transform="translate(0.5 0.525391)"/>
</clipPath>
</defs>
</svg>
