<svg width="24" height="24" viewBox="0 0 24 24" fill="none" xmlns="http://www.w3.org/2000/svg">
<mask id="mask0_8381_22574" style="mask-type:luminance" maskUnits="userSpaceOnUse" x="0" y="0" width="24" height="24">
<path d="M1 1H23V23H1V1Z" fill="white" stroke="white" stroke-width="2"/>
</mask>
<g mask="url(#mask0_8381_22574)">
<path d="M10.0362 14.6155L3.70084 21.8759H2.6708L9.82385 13.6761L10.3603 13.0611L9.8654 12.4123L2.0204 2.12671H7.09589L12.0347 8.67676L12.7763 9.66038L13.5865 8.73235L19.3545 2.125H20.3806L13.7871 9.68004L13.2533 10.2917L13.7423 10.9398L21.9929 21.8759H17.0889L11.5845 14.6662L10.8414 13.6928L10.0362 14.6155ZM16.8107 21.2744L17.1108 21.6679H17.6057H19.6457H21.6529L20.444 20.0656L7.27827 2.61585L6.97821 2.21814H6.48H4.29257H2.27182L3.49754 3.82471L16.8107 21.2744Z" fill="black" stroke="#F9BD00" stroke-width="2"/>
</g>
</svg>
