<svg width="65" height="65" viewBox="0 0 65 65" fill="none" xmlns="http://www.w3.org/2000/svg">
<path d="M5.96702 35.1683H20.5724C21.0287 43.6133 23.7205 51.7854 28.3724 58.8483C22.545 57.9336 17.1851 55.1135 13.1308 50.829C9.07644 46.5446 6.55894 41.0373 5.96702 35.1683ZM5.96436 29.835C6.55558 23.966 9.07512 18.4584 13.129 14.1734C17.1828 9.88845 22.5424 7.06773 28.3697 6.15234C23.7178 13.2153 21.026 21.3874 20.5697 29.8323L5.96436 29.835ZM59.031 29.835H44.4257C43.9698 21.3892 41.278 13.2161 36.6257 6.15234C42.453 7.06707 47.8129 9.88717 51.8673 14.1717C55.9216 18.4561 58.4418 23.9634 59.0337 29.8323M59.0337 35.1657C58.4419 41.0342 55.9221 46.5412 51.8683 50.8256C47.8145 55.1101 42.4552 57.9304 36.6284 58.8457C41.2798 51.7835 43.9716 43.6124 44.4284 35.1683L59.0337 35.1657ZM25.9137 35.1683H39.087C38.649 42.3671 36.382 49.3352 32.5004 55.4137C28.6187 49.3352 26.3517 42.3671 25.9137 35.1683ZM25.9137 29.835C26.3517 22.6362 28.6187 15.6681 32.5004 9.58968C36.382 15.6681 38.649 22.6362 39.087 29.835H25.9137Z" fill="white"/>
</svg>
