<svg width="23" height="23" viewBox="0 0 23 23" fill="none" xmlns="http://www.w3.org/2000/svg">
<rect x="0.5" y="0.525391" width="22" height="22" rx="11" fill="#0D503F"/>
<path d="M16.2222 15.2266C15.2316 15.3208 14.3037 15.2053 13.4598 14.8822C12.2655 14.4248 11.2644 13.565 10.4839 12.3276C9.63324 10.9785 8.43926 10.4196 6.83329 10.6195C5.74213 10.7555 4.80744 11.2159 4.4975 11.3826C4.43559 11.4158 4.36204 11.3885 4.32977 11.3203L3.26525 9.07306C3.23111 9.0006 3.25625 8.91066 3.32116 8.874C3.70127 8.66044 4.9474 8.01593 6.47195 7.80792C7.57737 7.65702 8.60999 7.76145 9.54056 8.11824C10.7345 8.57604 11.7356 9.43581 12.5161 10.6733C13.3668 12.0219 14.5603 12.5799 16.1659 12.3792C17.2567 12.2432 18.1914 11.782 18.5014 11.6149C18.5629 11.5816 18.6368 11.6089 18.6691 11.6771L19.7347 13.9235C19.7689 13.996 19.7437 14.0859 19.6792 14.1226C19.2991 14.3361 18.0526 14.9819 16.5284 15.1908C16.426 15.2048 16.3239 15.2168 16.2222 15.2266ZM16.6076 7.34585C16.5855 7.29939 16.5412 7.27168 16.4943 7.27466C15.6875 7.32155 14.4463 7.11865 13.497 5.7269C12.3968 4.1135 10.7473 3.26609 8.72706 3.27547C7.60663 3.28101 6.68395 3.5487 6.29521 3.68127C6.22204 3.70642 6.1879 3.80148 6.2243 3.87735L7.33422 6.2056C7.35973 6.25888 7.41264 6.28701 7.4648 6.27465C7.80513 6.19323 8.27942 6.11139 8.80061 6.11608C10.001 6.12588 10.9165 6.58028 11.5206 7.46648C12.5972 9.04493 14.0763 9.95543 15.7982 10.0995C16.1761 10.1306 16.5254 10.1217 16.8327 10.0923C17.1716 10.0603 17.4586 10.0036 17.6747 9.94988C17.7528 9.93028 17.7926 9.83096 17.7543 9.75082L16.6076 7.34585Z" fill="#F9BD00"/>
<path d="M8.94729 13.4108C9.07037 14.3337 8.51203 15.1952 7.70004 15.335C6.88767 15.4748 6.12933 14.8405 6.00626 13.9181C5.88318 12.9952 6.44152 12.1337 7.25352 11.9939C8.06588 11.8541 8.82384 12.4884 8.94729 13.4108ZM16.5603 17.8312C16.6837 18.7536 16.125 19.6151 15.313 19.7553C14.5007 19.8951 13.7427 19.2608 13.6192 18.338C13.4962 17.4156 14.0545 16.5541 14.8669 16.4143C15.6789 16.274 16.4372 16.9087 16.5603 17.8312Z" fill="#F9BD00"/>
</svg>
