<svg width="1440" height="1025" viewBox="0 0 1440 1025" fill="none" xmlns="http://www.w3.org/2000/svg">
<g clip-path="url(#clip0_8381_22385)">
<rect width="1440" height="1024" transform="translate(0 0.554688)" fill="#0D503F"/>
<path opacity="0.15" d="M473.179 103.513C419.517 130.947 365.145 146.544 311.293 149.979C235.066 154.834 161.564 135.443 92.7629 92.2968C17.7692 45.2997 -60.4621 45.1198 -146.484 91.9077C-204.939 123.672 -248.05 167.9 -262.064 183.225C-264.844 186.258 -269.538 186.643 -272.701 183.976L-377.884 97.5308C-381.282 94.7236 -381.67 89.7358 -378.77 86.4177C-361.76 67.1427 -304.887 6.68619 -223.641 -38.6177C-164.687 -71.4734 -104.668 -90.0359 -45.2877 -93.8434C30.9394 -98.6986 104.462 -79.2567 173.263 -36.1104C248.206 10.9075 326.467 11.0159 412.418 -35.8018C470.852 -67.6163 513.913 -111.824 527.956 -127.221C530.736 -130.253 535.43 -130.639 538.594 -127.972L643.806 -41.5976C647.204 -38.7904 647.592 -33.8026 644.692 -30.4845C627.682 -11.2095 570.881 49.2768 489.604 94.6522C484.12 97.7279 478.624 100.631 473.158 103.463L473.179 103.513Z" fill="white"/>
<path opacity="0.15" d="M473.179 129.513C419.517 156.947 365.145 172.544 311.293 175.979C235.066 180.834 161.564 161.443 92.7629 118.297C17.7692 71.2997 -60.4621 71.1198 -146.484 117.908C-204.939 149.672 -248.05 193.9 -262.064 209.225C-264.844 212.258 -269.538 212.643 -272.701 209.976L-377.884 123.531C-381.282 120.724 -381.67 115.736 -378.77 112.418C-361.76 93.1427 -304.887 32.6862 -223.641 -12.6177C-164.687 -45.4734 -104.668 -64.0359 -45.2877 -67.8434C30.9394 -72.6986 104.462 -53.2567 173.263 -10.1104C248.206 36.9075 326.467 37.0159 412.418 -9.80185C470.852 -41.6163 513.913 -85.8236 527.956 -101.221C530.736 -104.253 535.43 -104.639 538.594 -101.972L643.806 -15.5976C647.204 -12.7904 647.592 -7.80261 644.692 -4.4845C627.682 14.7905 570.881 75.2768 489.604 120.652C484.12 123.728 478.624 126.631 473.158 129.463L473.179 129.513Z" fill="white"/>
<rect opacity="0.08" x="1441.95" y="143.555" width="243.038" height="243.038" rx="40" transform="rotate(45 1441.95 143.555)" fill="white"/>
<rect opacity="0.08" x="1566.94" y="424.77" width="243.038" height="243.038" rx="40" transform="rotate(45 1566.94 424.77)" fill="white"/>
<rect opacity="0.08" x="1363.84" y="627.869" width="243.038" height="243.038" rx="40" transform="rotate(45 1363.84 627.869)" fill="white"/>
<rect opacity="0.08" x="1238.85" y="346.654" width="243.038" height="243.038" rx="40" transform="rotate(45 1238.85 346.654)" fill="white"/>
</g>
<defs>
<clipPath id="clip0_8381_22385">
<rect width="1440" height="1024" fill="white" transform="translate(0 0.554688)"/>
</clipPath>
</defs>
</svg>
