<svg width="1440" height="401" viewBox="0 0 1440 401" fill="none" xmlns="http://www.w3.org/2000/svg">
<path d="M154.63 377.96C261.513 399.304 364.399 405.674 460.949 396.914C597.404 384.52 718.21 342.316 819.954 271.534C930.802 194.343 1068.68 175.185 1241.37 212.884C1358.73 238.532 1454.63 283.506 1486.32 299.363C1492.6 302.495 1500.96 301.77 1505.41 297.721L1651.61 163.793C1656.36 159.502 1654.78 153.091 1648.2 149.668C1609.53 129.625 1481.98 67.6473 1318.31 30.6218C1199.53 3.7061 1085.37 -4.98306 979.057 4.70338C842.558 17.1757 721.751 59.3799 620.008 130.162C509.182 207.313 371.392 226.449 198.682 188.656C81.4096 162.984 -14.5599 117.994 -46.1579 102.113C-52.4415 98.9812 -60.8677 99.6913 -65.3223 103.74L-211.634 237.597C-216.308 241.904 -214.799 248.299 -208.223 251.722C-169.553 271.765 -42.04 333.821 121.651 370.941C132.69 373.425 143.66 375.759 154.63 377.96Z" fill="url(#paint0_linear_8381_19052)" fill-opacity="0.35"/>
<defs>
<linearGradient id="paint0_linear_8381_19052" x1="153.501" y1="327.853" x2="1169.65" y2="-128.119" gradientUnits="userSpaceOnUse">
<stop stop-color="#0D4C3B" stop-opacity="0.6"/>
<stop offset="0.465" stop-color="#0D4C3B" stop-opacity="0.3"/>
<stop offset="0.94" stop-color="#0D4C3B" stop-opacity="0.1"/>
</linearGradient>
</defs>
</svg>
