<svg width="36" height="36" viewBox="0 0 36 36" fill="none" xmlns="http://www.w3.org/2000/svg">
<rect width="36" height="36" rx="18" fill="#F9BD00"/>
<path d="M25.2275 11.9287C24.4775 12.2962 23.7425 12.4454 22.9775 12.6712C22.1368 11.7224 20.8903 11.6699 19.6925 12.1184C18.4948 12.5669 17.7103 13.6634 17.7275 14.9212V15.6712C15.2938 15.7334 13.1263 14.6249 11.7275 12.6712C11.7275 12.6712 8.59104 18.2459 14.7275 20.9212C13.3235 21.8564 11.9233 22.4872 10.2275 22.4212C12.7085 23.7734 15.4123 24.2384 17.753 23.5589C20.438 22.7789 22.6445 20.7667 23.4913 17.7524C23.7439 16.8357 23.8693 15.8885 23.864 14.9377C23.8625 14.7509 24.9965 12.8587 25.2275 11.9279V11.9287Z" stroke="#2C2D33" stroke-width="1.125" stroke-linecap="round" stroke-linejoin="round"/>
</svg>
