<svg width="96" height="97" viewBox="0 0 96 97" fill="none" xmlns="http://www.w3.org/2000/svg">
<path opacity="0.4" d="M48.0005 69.8994C51.6014 69.8994 54.5205 66.9803 54.5205 63.3794C54.5205 59.7785 51.6014 56.8594 48.0005 56.8594C44.3996 56.8594 41.4805 59.7785 41.4805 63.3794C41.4805 66.9803 44.3996 69.8994 48.0005 69.8994Z" fill="white"/>
<path d="M66.6 38.2578H29.4C13 38.2578 8 43.2578 8 59.6578V67.0978C8 83.4978 13 88.4978 29.4 88.4978H66.6C83 88.4978 88 83.4978 88 67.0978V59.6578C88 43.2578 83 38.2578 66.6 38.2578ZM48 75.4578C41.32 75.4578 35.92 70.0178 35.92 63.3778C35.92 56.7378 41.32 51.2978 48 51.2978C54.68 51.2978 60.08 56.7378 60.08 63.3778C60.08 70.0178 54.68 75.4578 48 75.4578Z" fill="white"/>
<path opacity="0.4" d="M28.4809 38.3V33.62C28.4809 21.9 31.8009 14.1 48.0009 14.1C64.2009 14.1 67.5209 21.9 67.5209 33.62V38.3C69.5609 38.34 71.4009 38.42 73.1209 38.66V33.62C73.1209 22.82 70.5209 8.5 48.0009 8.5C25.4809 8.5 22.8809 22.82 22.8809 33.62V38.62C24.5609 38.42 26.4409 38.3 28.4809 38.3Z" fill="white"/>
</svg>
