<svg width="299" height="356" viewBox="0 0 299 356" fill="none" xmlns="http://www.w3.org/2000/svg">
<g clip-path="url(#clip0_2_2)">
<g clip-path="url(#clip1_2_2)">
<path d="M1537.37 788.345L1534.72 776.131C1506.19 782.336 1468.22 789.022 1423.45 792.722L1423.43 792.724L1423.41 792.725C1382.81 796.188 1336.6 797.261 1286.7 793.562C1059.43 776.751 864.361 671.124 722.097 487.597L722.096 487.596C638.202 379.392 511.485 324.608 347.595 323.372C276.538 322.756 212.008 332.601 165.769 342.288L165.757 342.291C164.255 342.607 162.647 341.879 161.894 340.481L161.887 340.468L161.88 340.454L13.0078 65.6512L12.9794 65.5988L12.9505 65.5466C11.8514 63.5632 12.8825 61.0901 15.0159 60.4581L15.0325 60.4532L15.049 60.4483C66.5953 45.0229 189.015 13.7328 337.605 13.1337C605.247 12.0571 822.414 110.719 967.378 297.631C1098.02 466.151 1269.1 490.772 1379.72 485.095C1381.37 485.049 1382.7 485.893 1383.33 487.054L1537.03 770.777C1537.03 770.78 1537.03 770.784 1537.03 770.788C1538.27 773.108 1536.91 775.651 1534.71 776.133L1537.37 788.345ZM1537.37 788.345C1547.91 786.044 1553.12 774.297 1548.03 764.85L347.487 335.871C508.472 337.083 631.18 390.735 712.217 495.255C856.607 681.525 1054.9 788.951 1285.78 806.028C1336.41 809.782 1383.29 808.692 1424.48 805.18C1469.9 801.425 1508.42 794.643 1537.37 788.345Z" fill="#F9BD00"/>
<path d="M1537.37 788.345L1534.72 776.131C1506.19 782.336 1468.22 789.022 1423.45 792.722L1423.43 792.724L1423.41 792.725C1382.81 796.188 1336.6 797.261 1286.7 793.562C1059.43 776.751 864.361 671.124 722.097 487.597L722.096 487.596C638.202 379.392 511.485 324.608 347.595 323.372C276.538 322.756 212.008 332.601 165.769 342.288L165.757 342.291C164.255 342.607 162.647 341.879 161.894 340.481L161.887 340.468L161.88 340.454L13.0078 65.6512L12.9794 65.5988L12.9505 65.5466C11.8514 63.5632 12.8825 61.0901 15.0159 60.4581L15.0325 60.4532L15.049 60.4483C66.5953 45.0229 189.015 13.7328 337.605 13.1337C605.247 12.0571 822.414 110.719 967.378 297.631C1098.02 466.151 1269.1 490.772 1379.72 485.095C1381.37 485.049 1382.7 485.893 1383.33 487.054L1537.03 770.777C1537.03 770.78 1537.03 770.784 1537.03 770.788C1538.27 773.108 1536.91 775.651 1534.71 776.133L1537.37 788.345ZM1537.37 788.345C1547.91 786.044 1553.12 774.297 1548.03 764.85L347.487 335.871C508.472 337.083 631.18 390.735 712.217 495.255C856.607 681.525 1054.9 788.951 1285.78 806.028C1336.41 809.782 1383.29 808.692 1424.48 805.18C1469.9 801.425 1508.42 794.643 1537.37 788.345Z" stroke="#F4FAF6" stroke-width="25"/>
</g>
</g>
<defs>
<clipPath id="clip0_2_2">
<rect width="299" height="356" fill="white"/>
</clipPath>
<clipPath id="clip1_2_2">
<rect width="299" height="809" fill="white"/>
</clipPath>
</defs>
</svg>
