<svg width="277" height="356" viewBox="0 0 277 356" fill="none" xmlns="http://www.w3.org/2000/svg">
<g clip-path="url(#clip0_2_3)">
<g clip-path="url(#clip1_2_3)">
<path d="M-1260.37 788.345L-1257.72 776.131C-1229.19 782.336 -1191.22 789.022 -1146.45 792.722L-1146.43 792.724L-1146.41 792.725C-1105.81 796.188 -1059.6 797.261 -1009.7 793.562C-782.427 776.751 -587.361 671.124 -445.097 487.597L-445.096 487.596C-361.202 379.392 -234.485 324.608 -70.5955 323.372C0.462158 322.756 64.9921 332.601 111.231 342.288L111.243 342.291C112.745 342.607 114.353 341.879 115.106 340.481L115.113 340.468L115.12 340.454L263.992 65.6512L264.021 65.5988L264.049 65.5466C265.149 63.5632 264.117 61.0901 261.984 60.4581L261.968 60.4532L261.951 60.4483C210.405 45.0229 87.9847 13.7328 -60.6046 13.1337C-328.247 12.0571 -545.414 110.719 -690.378 297.631C-821.017 466.151 -992.098 490.772 -1102.71 485.095C-1104.37 485.049 -1105.7 485.893 -1106.33 487.054L-1260.03 770.777C-1260.03 770.779 -1260.03 770.78 -1260.03 770.782C-1261.28 773.104 -1259.91 775.651 -1257.71 776.133L-1260.37 788.345ZM-1260.37 788.345C-1270.91 786.044 -1276.12 774.296 -1271.03 764.85L-70.4872 335.871C-231.472 337.083 -354.18 390.735 -435.217 495.255C-579.607 681.525 -777.902 788.951 -1008.78 806.028C-1059.41 809.782 -1106.29 808.692 -1147.48 805.18C-1192.9 801.425 -1231.42 794.643 -1260.37 788.345Z" fill="#F9BD00"/>
<path d="M-1260.37 788.345L-1257.72 776.131C-1229.19 782.336 -1191.22 789.022 -1146.45 792.722L-1146.43 792.724L-1146.41 792.725C-1105.81 796.188 -1059.6 797.261 -1009.7 793.562C-782.427 776.751 -587.361 671.124 -445.097 487.597L-445.096 487.596C-361.202 379.392 -234.485 324.608 -70.5955 323.372C0.462105 322.756 64.9921 332.601 111.231 342.288L111.243 342.291C112.745 342.607 114.353 341.879 115.106 340.481L115.113 340.468L115.12 340.454L263.992 65.6512L264.021 65.5988L264.049 65.5466C265.149 63.5632 264.117 61.0901 261.984 60.4581L261.968 60.4532L261.951 60.4483C210.405 45.0229 87.9848 13.7328 -60.6046 13.1337C-328.247 12.0571 -545.414 110.719 -690.378 297.631C-821.017 466.151 -992.098 490.772 -1102.71 485.095C-1104.37 485.049 -1105.7 485.893 -1106.33 487.054L-1260.03 770.777C-1260.03 770.779 -1260.03 770.78 -1260.03 770.782C-1261.28 773.104 -1259.91 775.651 -1257.71 776.133L-1260.37 788.345ZM-1260.37 788.345C-1270.91 786.044 -1276.12 774.296 -1271.03 764.85L-70.4872 335.871C-231.472 337.083 -354.18 390.735 -435.217 495.255C-579.607 681.525 -777.902 788.951 -1008.78 806.028C-1059.41 809.782 -1106.29 808.692 -1147.48 805.18C-1192.9 801.425 -1231.42 794.643 -1260.37 788.345Z" stroke="#F4FAF6" stroke-width="25"/>
</g>
</g>
<defs>
<clipPath id="clip0_2_3">
<rect width="277" height="356" fill="white"/>
</clipPath>
<clipPath id="clip1_2_3">
<rect width="277" height="809" fill="white"/>
</clipPath>
</defs>
</svg>
