<svg width="48" height="49" viewBox="0 0 48 49" fill="none" xmlns="http://www.w3.org/2000/svg">
<path d="M36.9397 33.7147L37.7197 40.0347C37.9197 41.6947 36.1397 42.8546 34.7197 41.9946L26.3397 37.0146C25.4197 37.0146 24.5197 36.9547 23.6397 36.8347C25.1197 35.0947 25.9997 32.8946 25.9997 30.5146C25.9997 24.8346 21.0797 20.2347 14.9997 20.2347C12.6797 20.2347 10.5397 20.8947 8.7597 22.0547C8.6997 21.5547 8.67969 21.0547 8.67969 20.5347C8.67969 11.4347 16.5797 4.05469 26.3397 4.05469C36.0997 4.05469 43.9997 11.4347 43.9997 20.5347C43.9997 25.9347 41.2197 30.7147 36.9397 33.7147Z" stroke="#0D503F" stroke-width="1.5" stroke-linecap="round" stroke-linejoin="round"/>
<path d="M26 30.5143C26 32.8943 25.12 35.0944 23.64 36.8344C21.66 39.2344 18.52 40.7743 15 40.7743L9.78 43.8743C8.9 44.4143 7.77999 43.6743 7.89999 42.6543L8.39999 38.7144C5.71999 36.8544 4 33.8743 4 30.5143C4 26.9943 5.88001 23.8943 8.76001 22.0543C10.54 20.8943 12.68 20.2344 15 20.2344C21.08 20.2344 26 24.8343 26 30.5143Z" fill="#0D503F" stroke="#0D503F" stroke-width="1.5" stroke-linecap="round" stroke-linejoin="round"/>
</svg>
