<svg width="36" height="30" viewBox="0 0 36 30" fill="none" xmlns="http://www.w3.org/2000/svg">
<path d="M27.919 13.3798L16.108 1.56885C15.6062 1.06706 14.9256 0.78516 14.216 0.785156H2.83779C1.36003 0.785156 0.162109 1.98308 0.162109 3.46083V14.839C0.162113 15.5487 0.444016 16.2292 0.945804 16.731L12.7568 28.542C13.8017 29.5869 15.4958 29.587 16.5408 28.542L27.919 17.1638C28.9639 16.1189 28.9639 14.4247 27.919 13.3798ZM6.40536 9.70407C4.9276 9.70407 3.72968 8.50615 3.72968 7.0284C3.72968 5.55065 4.9276 4.35272 6.40536 4.35272C7.88311 4.35272 9.08103 5.55065 9.08103 7.0284C9.08103 8.50615 7.88311 9.70407 6.40536 9.70407ZM35.0541 17.1638L23.6759 28.542C22.631 29.5869 20.9368 29.5869 19.8919 28.542L19.8719 28.5219L29.5745 18.8193C30.5221 17.8717 31.0439 16.6119 31.0439 15.2718C31.0439 13.9318 30.522 12.6719 29.5745 11.7243L18.6353 0.785156H21.3511C22.0608 0.78516 22.7413 1.06706 23.2431 1.56885L35.0541 13.3798C36.099 14.4247 36.099 16.1189 35.0541 17.1638Z" fill="#0D4C3B"/>
</svg>
