<svg width="36" height="30" viewBox="0 0 36 30" fill="none" xmlns="http://www.w3.org/2000/svg">
<path d="M34.2162 10.3008H32.5885L32.5834 8.91513C32.5057 8.05822 32.4139 7.20114 32.303 6.34883C31.9514 3.58673 29.7312 1.41694 26.9061 1.07163C26.0145 0.963191 25.1229 0.870286 24.2297 0.794503C23.3492 0.709367 22.551 1.3643 22.4735 2.23675C22.3958 3.10841 23.0563 3.87717 23.9479 3.95296C24.803 4.02573 25.6535 4.11403 26.5039 4.21772C27.8547 4.3826 28.9174 5.41994 29.0852 6.74296C29.1898 7.55881 29.2783 8.3772 29.3464 9.05766L29.3487 10.3008H6.64487L6.64227 9.19527C6.7167 8.37625 6.80541 7.55723 6.90838 6.74217C7.07784 5.42073 8.14049 4.3826 9.4913 4.21772C10.3417 4.11403 11.1921 4.02573 12.0473 3.95296C12.9389 3.87702 13.5992 3.10841 13.5217 2.23675C13.444 1.36351 12.6397 0.697793 11.7655 0.794503C10.8721 0.870445 9.98054 0.963349 9.08897 1.07163C6.26379 1.41614 4.04362 3.58593 3.69043 6.34962C3.58114 7.20273 3.48935 8.05885 3.40535 9.05528V10.3008H1.78373C0.887461 10.3008 0.162109 11.0107 0.162109 11.8862C0.162109 12.7617 0.887461 13.4716 1.78373 13.4716H30.9729H30.9762H34.2162C35.1124 13.4716 35.8378 12.7617 35.8378 11.8862C35.8378 11.0107 35.1124 10.3008 34.2162 10.3008ZM24.3582 29.3079C25.2102 29.2344 26.0589 29.1454 26.9062 29.0416C29.7314 28.6963 31.9516 26.5265 32.3031 23.7682C32.3696 23.255 32.4298 22.741 32.4836 22.2285C32.5581 21.5155 32.5945 20.7654 32.5945 19.9355V18.2278C32.5945 17.3524 31.8692 16.6424 30.9729 16.6424C30.0767 16.6424 29.3513 17.3524 29.3513 18.2278V19.9355C29.3513 20.6562 29.3197 21.2996 29.2563 21.9049C29.2057 22.3941 29.1486 22.8818 29.0852 23.3726C28.9174 24.6933 27.8547 25.7306 26.5039 25.8955C25.6947 25.9946 24.8839 26.0789 24.0731 26.1495C23.1799 26.2269 22.5212 26.9964 22.6003 27.8689C22.6748 28.6933 23.3826 29.3141 24.214 29.3141C24.2615 29.3141 24.3107 29.3117 24.3582 29.3079ZM3.69043 23.766C4.04362 26.5273 6.26379 28.6972 9.08897 29.0416C9.98216 29.1507 10.8784 29.2436 11.7732 29.3195C11.8222 29.3241 11.8683 29.3257 11.9156 29.3257C12.7487 29.3257 13.4565 28.7033 13.5293 27.8773C13.607 27.0048 12.9465 26.2361 12.0549 26.1611C11.1982 26.0883 10.343 26 9.49097 25.8955C8.14016 25.7306 7.07752 24.6925 6.90806 23.3719C6.85422 22.9468 6.80508 22.5227 6.75757 22.1007C6.69108 21.469 6.66254 20.835 6.65946 20.1994L6.6486 18.2193C6.64389 17.3468 5.91854 16.6424 5.02697 16.6424C5.02373 16.6424 5.02065 16.6424 5.01741 16.6424C4.12276 16.647 3.40065 17.3608 3.40535 18.2364L3.41638 20.215C3.41962 21.0039 3.45757 21.7284 3.53362 22.4328C3.58114 22.8772 3.63335 23.3216 3.69043 23.766Z" fill="#0D4C3B"/>
</svg>
