<svg width="36" height="36" viewBox="0 0 36 36" fill="none" xmlns="http://www.w3.org/2000/svg">
<path d="M33.4594 0.441623L29.8918 3.56292L24.8378 0.441623C24.5811 0.295823 24.2679 0.216916 23.9459 0.216916C23.6239 0.216916 23.3107 0.295823 23.054 0.441623L17.9999 3.56292L12.9459 0.441623C12.6892 0.295823 12.376 0.216916 12.054 0.216916C11.732 0.216916 11.4188 0.295823 11.1621 0.441623L6.10806 3.56292L2.54049 0.441623C1.55569 -0.108784 0.162109 0.413754 0.162109 1.33342V34.7759C0.162109 35.6955 1.55569 36.2181 2.54049 35.6677L6.10806 32.5464L11.1621 35.6677C11.4188 35.8135 11.732 35.8924 12.054 35.8924C12.376 35.8924 12.6892 35.8135 12.9459 35.6677L17.9999 32.5464L23.054 35.6677C23.3107 35.8135 23.6239 35.8924 23.9459 35.8924C24.2679 35.8924 24.5811 35.8135 24.8378 35.6677L29.8918 32.5464L33.4594 35.6677C34.4349 36.2181 35.8378 35.6955 35.8378 34.7759V1.33342C35.8378 0.413754 34.4442 -0.108784 33.4594 0.441623ZM29.8918 25.3005C29.8918 25.6071 29.5574 25.8579 29.1486 25.8579H6.8513C6.44251 25.8579 6.10806 25.6071 6.10806 25.3005V24.1858C6.10806 23.8792 6.44251 23.6284 6.8513 23.6284H29.1486C29.5574 23.6284 29.8918 23.8792 29.8918 24.1858V25.3005ZM29.8918 18.612C29.8918 18.9186 29.5574 19.1694 29.1486 19.1694H6.8513C6.44251 19.1694 6.10806 18.9186 6.10806 18.612V17.4973C6.10806 17.1907 6.44251 16.9399 6.8513 16.9399H29.1486C29.5574 16.9399 29.8918 17.1907 29.8918 17.4973V18.612ZM29.8918 11.9235C29.8918 12.2301 29.5574 12.4809 29.1486 12.4809H6.8513C6.44251 12.4809 6.10806 12.2301 6.10806 11.9235V10.8088C6.10806 10.5022 6.44251 10.2514 6.8513 10.2514H29.1486C29.5574 10.2514 29.8918 10.5022 29.8918 10.8088V11.9235Z" fill="#0D4C3B"/>
</svg>
