<svg width="36" height="36" viewBox="0 0 36 36" fill="none" xmlns="http://www.w3.org/2000/svg">
<path d="M17.9999 2.763C9.55575 2.763 2.70832 9.61043 2.70832 18.0546C2.70832 26.4988 9.55575 33.3463 17.9999 33.3463C26.4442 33.3463 33.2916 26.4988 33.2916 18.0546C33.2916 9.61043 26.4442 2.763 17.9999 2.763ZM10.9943 12.3221C10.9943 8.45961 14.1375 5.31641 17.9999 5.31641C21.8624 5.31641 25.0056 8.45961 25.0056 12.3221V14.2353C25.0056 14.595 24.7251 14.8755 24.3655 14.8755H23.0924C22.7327 14.8755 22.4522 14.595 22.4522 14.2353V12.3221C22.4522 6.41688 13.5333 6.41688 13.5333 12.3221V14.2353C13.5333 14.595 13.2528 14.8755 12.8931 14.8755H11.62C11.2604 14.8755 10.9799 14.595 10.9799 14.2353V12.3221H10.9943ZM28.192 26.9736C28.192 27.6712 27.6166 28.2467 26.9189 28.2467H9.08103C8.38334 28.2467 7.80793 27.6712 7.80793 26.9736V16.7815C7.80793 16.0838 8.38334 15.5084 9.08103 15.5084H26.9189C27.6166 15.5084 28.192 16.0838 28.192 16.7815V26.9736ZM10.3541 17.098V26.6571C10.3541 26.8369 10.2175 26.9736 10.0377 26.9736H9.39751C9.21769 26.9736 9.08103 26.8369 9.08103 26.6571V17.098C9.08103 16.9182 9.21769 16.7815 9.39751 16.7815H10.0377C10.2175 16.7815 10.3541 16.9182 10.3541 17.098ZM20.5462 20.6008C20.5462 21.5359 20.0283 22.3559 19.2731 22.7874V25.0603C19.2731 25.4199 18.9925 25.7005 18.6329 25.7005H17.3598C17.0002 25.7005 16.7197 25.4199 16.7197 25.0603V22.7874C15.9644 22.3487 15.4465 21.5359 15.4465 20.6008C15.4465 19.1839 16.583 18.0546 17.9928 18.0546C19.4025 18.0546 20.5462 19.1911 20.5462 20.6008ZM17.9999 0.216797C8.14598 0.216797 0.162109 8.20067 0.162109 18.0546C0.162109 27.9086 8.14598 35.8925 17.9999 35.8925C27.8539 35.8925 35.8378 27.9086 35.8378 18.0546C35.8378 8.20067 27.8539 0.216797 17.9999 0.216797ZM17.9999 34.6194C8.86525 34.6194 1.43521 27.1893 1.43521 18.0546C1.43521 8.91994 8.86525 1.4899 17.9999 1.4899C27.1346 1.4899 34.5647 8.91994 34.5647 18.0546C34.5647 27.1893 27.1346 34.6194 17.9999 34.6194Z" fill="#0D4C3B"/>
</svg>
