<svg width="96" height="97" viewBox="0 0 96 97" fill="none" xmlns="http://www.w3.org/2000/svg">
<rect y="0.0546875" width="96" height="96" rx="48" fill="#DBF9F1"/>
<path d="M56 66.0547V62.0547C56 59.933 55.1571 57.8981 53.6569 56.3978C52.1566 54.8975 50.1217 54.0547 48 54.0547H34C31.8783 54.0547 29.8434 54.8975 28.3431 56.3978C26.8429 57.8981 26 59.933 26 62.0547V66.0547" fill="#0D503F"/>
<path d="M58 46.0547L62 50.0547L70 42.0547" stroke="#0D503F" stroke-width="4" stroke-linecap="round" stroke-linejoin="round"/>
<path d="M41 46.0547C45.4183 46.0547 49 42.473 49 38.0547C49 33.6364 45.4183 30.0547 41 30.0547C36.5817 30.0547 33 33.6364 33 38.0547C33 42.473 36.5817 46.0547 41 46.0547Z" fill="#0D503F"/>
</svg>
